<svg width="82" height="82" viewBox="0 0 82 82" fill="none" xmlns="http://www.w3.org/2000/svg">
<g id="Buttons/Square/SoundOn/Hover">
<g id="Buttons/Square/SoundOn/Hover_2">
<g id="Button/Square/Hover">
<g id="Group">
<g id="Group_2">
<g id="Rectangle" filter="url(#filter0_diii_884_42077)">
<rect x="1" width="80" height="80" rx="2" fill="#8D8EA3"/>
</g>
<rect id="Rectangle_2" style="mix-blend-mode:color" opacity="0.5" x="1" width="80" height="80" rx="2" fill="#B2BCF6"/>
<g id="Rectangle_3" style="mix-blend-mode:lighten" opacity="0.5">
<rect x="1" width="80" height="80" rx="2" fill="#B2BCF6" style="mix-blend-mode:color"/>
</g>
<g id="MaskGroup">
<mask id="mask0_884_42077" style="mask-type:alpha" maskUnits="userSpaceOnUse" x="1" y="0" width="80" height="80">
<rect id="Rectangle_4" x="1" width="80" height="80" rx="2" fill="#8D8EA3"/>
</mask>
<g mask="url(#mask0_884_42077)">
<g id="Vector" style="mix-blend-mode:multiply" opacity="0.05">
<path d="M27.1395 79.9323C31.1409 56.9127 38.8743 12.1381 38.8743 10.9854L37.4935 -7.50912C37.4605 -7.95056 37.575 -8.39046 37.8188 -8.75989L53.2889 -32.1938C54.2488 -33.648 56.4798 -33.2645 56.8992 -31.5733L76.1057 45.884C76.2593 46.5032 76.1082 47.1585 75.6991 47.648L53.2373 74.5228C53.1504 74.6268 53.0743 74.7393 53.0102 74.8586L41.5007 96.2751C40.797 97.5846 38.9613 97.6959 38.1045 96.481L27.4781 81.4125C27.172 80.9785 27.0485 80.4556 27.1395 79.9323Z" fill="url(#paint0_linear_884_42077)" style="mix-blend-mode:color-burn"/>
</g>
<g id="Vector_2" style="mix-blend-mode:multiply" opacity="0.05">
<path d="M-13.9645 42.8653L-0.76755 1.45586C-0.707079 1.26611 -0.618608 1.08646 -0.505064 0.922856L12.4254 -17.7089C13.6854 -19.5245 16.525 -18.2566 16.0143 -16.1064L2.59829 40.3768L-4.92488 80.8726C-4.99689 81.2602 -5.18183 81.6178 -5.45648 81.9007L-14.5351 91.249C-15.8439 92.5967 -18.1206 91.5596 -17.9628 89.6876L-14.0518 43.3046C-14.0393 43.1553 -14.01 43.008 -13.9645 42.8653Z" fill="url(#paint1_linear_884_42077)" style="mix-blend-mode:color-burn"/>
</g>
<g id="Vector_3" style="mix-blend-mode:multiply" opacity="0.05">
<path d="M18.8192 35.8321L24.8082 -27.1059C24.9209 -28.2904 26.0365 -29.1151 27.202 -28.8754L45.0469 -25.2064C45.9123 -25.0285 46.5584 -24.3039 46.6364 -23.4239L50.4247 19.3273C50.4412 19.5141 50.4314 19.7024 50.3955 19.8864L43.4931 55.3065C43.1946 56.8382 41.335 57.4532 40.1821 56.4014L19.4623 37.4991C18.9978 37.0754 18.7596 36.458 18.8192 35.8321Z" fill="url(#paint2_linear_884_42077)" style="mix-blend-mode:color-burn"/>
</g>
<g id="Vector_4" style="mix-blend-mode:multiply" opacity="0.05">
<path d="M95.0675 -40.8539L92.5809 110.212C92.5636 111.259 91.743 112.115 90.6985 112.176L61.6008 113.887C60.3688 113.96 59.3657 112.91 59.4943 111.682L67.8633 31.7786C67.8853 31.5692 67.874 31.3577 67.83 31.1518L52.1644 -42.0765C51.891 -43.3545 52.8968 -44.5471 54.2026 -44.4932L93.1503 -42.8851C94.2346 -42.8403 95.0854 -41.939 95.0675 -40.8539Z" fill="url(#paint3_linear_884_42077)" style="mix-blend-mode:color-burn"/>
</g>
<g id="Vector_5" style="mix-blend-mode:multiply" opacity="0.05">
<path d="M64.8101 30.8871L62.6723 108.65C62.6443 109.67 63.3899 110.549 64.4019 110.686L77.7305 112.5C78.9094 112.661 79.9668 111.763 79.9994 110.573L82.1344 32.806L93.5379 -44.7081C93.7156 -45.9156 92.7797 -46.9992 91.5592 -46.9992H43.7064C42.3613 -46.9992 41.3996 -45.698 41.7945 -44.4121L64.7227 30.245C64.7865 30.4529 64.816 30.6697 64.8101 30.8871Z" fill="url(#paint4_linear_884_42077)" style="mix-blend-mode:color-burn"/>
</g>
<g id="Vector_6" style="mix-blend-mode:multiply" opacity="0.05">
<path d="M-21.4337 41.1502L-29.3065 -30.3086C-29.3937 -31.1007 -29.0025 -31.8689 -28.3107 -32.2642L-5.46532 -45.3171C-4.95843 -45.6068 -4.35029 -45.6604 -3.8005 -45.4641L22.5394 -36.0576C23.6462 -35.6623 24.1752 -34.4025 23.6824 -33.3355L8.84549 -1.21069C8.69348 -0.881569 8.63247 -0.529491 8.67147 -0.169067C11.143 22.6707 15.9721 67.5856 15.9721 68.7452C15.9721 69.7905 4.96773 85.3547 -2.27911 95.4388C-3.25034 96.7903 -5.34561 96.4236 -5.81156 94.8259L-21.3657 41.4912C-21.3982 41.3797 -21.421 41.2656 -21.4337 41.1502Z" fill="url(#paint5_linear_884_42077)" style="mix-blend-mode:color-burn"/>
</g>
<g id="Vector_7" style="mix-blend-mode:multiply" opacity="0.05">
<path d="M2.72591 34.6674L-30.4546 -9.57489C-31.1714 -10.5307 -30.8958 -11.8976 -29.8646 -12.501L-2.12843 -28.7316C-1.5031 -29.0975 -0.728754 -29.0966 -0.104258 -28.7293L42.3013 -3.78418C43.4432 -3.11251 43.6283 -1.53643 42.6733 -0.618423L5.71191 34.9093C4.84589 35.7417 3.44663 35.6283 2.72591 34.6674Z" fill="url(#paint6_linear_884_42077)" style="mix-blend-mode:color-burn"/>
</g>
</g>
</g>
<g id="Rectangle_5" filter="url(#filter1_di_884_42077)">
<rect x="10" y="9" width="62" height="62" rx="1" fill="#242B39"/>
</g>
<g id="Rectangle_6" style="mix-blend-mode:color">
<rect x="10" y="9" width="62" height="62" rx="2" fill="#E2C6F8" fill-opacity="0.2"/>
</g>
</g>
<g id="Rectangle_7" style="mix-blend-mode:screen" opacity="0.5">
<rect x="13.5" y="12.5" width="55" height="55" stroke="#FEDD9D"/>
</g>
<g id="Rectangle_8" style="mix-blend-mode:screen" opacity="0.5" filter="url(#filter2_f_884_42077)">
<rect x="14" y="13" width="54" height="54" stroke="#FCFF5E" stroke-opacity="0.5" stroke-width="2"/>
</g>
<g id="Rectangle_9" style="mix-blend-mode:color-burn" opacity="0.5">
<rect x="10" y="9" width="62" height="62" rx="2" fill="url(#paint7_radial_884_42077)"/>
</g>
<g id="Group_3">
<g id="Vector_8" style="mix-blend-mode:multiply" opacity="0.5">
<path d="M7.66664 16L0.999997 20L1 2C1 0.895431 1.89543 1.56562e-07 3 3.49691e-07L20.9999 3.4969e-06L16.9999 6.66667L11.6666 6.66667L14.3333 13.3333L7.66664 10.6667L7.66664 16Z" fill="#73799F"/>
</g>
<path id="Intersect" fill-rule="evenodd" clip-rule="evenodd" d="M1.00009 17.8677L1.00009 2.00104C1.00009 0.896471 1.89552 0.00104191 3.00009 0.00104201L18.8667 0.00104531L15.6667 5.33438L10.3334 5.33438L13.0001 12.001L6.33341 9.33438L6.33341 14.6677L1.00009 17.8677Z" fill="#A5ABDE"/>
<path id="Vector_9" opacity="0.5" d="M11.2 0C7.79998 1.13333 2.13333 7.93333 1 10.2V2C1 0.895431 1.89417 0 2.99874 0H11.2Z" fill="#C0C4E8"/>
</g>
<g id="Group_4">
<g id="Vector_10" style="mix-blend-mode:multiply" opacity="0.5">
<path d="M74.3334 64L81 60L81 78C81 79.1046 80.1046 80 79 80L61.0001 80L65.0001 73.3333L70.3334 73.3333L67.6667 66.6667L74.3334 69.3333L74.3334 64Z" fill="#73799F"/>
</g>
<path id="Intersect_2" fill-rule="evenodd" clip-rule="evenodd" d="M80.9999 62.1323L80.9999 77.999C80.9999 79.1035 80.1045 79.999 78.9999 79.999L63.1333 79.999L66.3333 74.6656L71.6666 74.6656L68.9999 67.999L75.6666 70.6656L75.6666 65.3323L80.9999 62.1323Z" fill="#A5ABDE"/>
<path id="Vector_11" opacity="0.5" d="M70.8 80C74.2 78.8667 79.8667 72.0667 81 69.8L81 78C81 79.1046 80.1058 80 79.0013 80L70.8 80Z" fill="#C0C4E8"/>
</g>
<g id="Group_5">
<g id="Vector_12" style="mix-blend-mode:multiply" opacity="0.5">
<path d="M65 6.66673L61 8.82943e-05L79 9.12269e-05C80.1046 9.14069e-05 81 0.895522 81 2.00009L81 20L74.3333 16L74.3333 10.6667L67.6667 13.3334L70.3333 6.66673L65 6.66673Z" fill="#73799F"/>
</g>
<path id="Intersect_3" fill-rule="evenodd" clip-rule="evenodd" d="M63.1323 2.98288e-05L78.999 3.29341e-05C80.1036 3.30175e-05 80.999 0.895463 80.999 2.00003L80.999 17.8666L75.6657 14.6666L75.6657 9.33333L68.999 12L71.6657 5.33335L66.3323 5.33335L63.1323 2.98288e-05Z" fill="#A5ABDE"/>
<path id="Vector_13" opacity="0.5" d="M81 10.2C79.8667 6.79998 73.0667 1.13333 70.8 1.21634e-07L79 2.38498e-08C80.1046 1.06779e-08 81 0.894172 81 1.99874L81 10.2Z" fill="#C0C4E8"/>
</g>
<g id="Group_6">
<g id="Vector_14" style="mix-blend-mode:multiply" opacity="0.5">
<path d="M17 73.3333L21 79.9999L3 79.9999C1.89543 79.9999 1 79.1045 1 77.9999L1 60L7.66667 64L7.66667 69.3333L14.3333 66.6666L11.6667 73.3333L17 73.3333Z" fill="#73799F"/>
</g>
<path id="Intersect_4" fill-rule="evenodd" clip-rule="evenodd" d="M18.8677 80L3.00101 80C1.89644 80 1.00101 79.1045 1.00101 78L1.00101 62.1334L6.33435 65.3334L6.33435 70.6667L13.001 68L10.3343 74.6667L15.6677 74.6667L18.8677 80Z" fill="#A5ABDE"/>
<path id="Vector_15" opacity="0.5" d="M1 69.8C2.13333 73.2 8.93333 78.8667 11.2 80L3 80C1.89543 80 1 79.1058 1 78.0013L1 69.8Z" fill="#C0C4E8"/>
</g>
<g id="Rectangle_10" style="mix-blend-mode:soft-light">
<rect x="1" width="80" height="80" rx="2" fill="url(#paint8_linear_884_42077)" fill-opacity="0.3"/>
</g>
<g id="Rectangle_11" style="mix-blend-mode:soft-light">
<rect x="1" width="80" height="80" rx="2" fill="url(#paint9_radial_884_42077)" fill-opacity="0.3"/>
</g>
</g>
</g>
<g id="Button/Icon/SoundOn">
<g id="Vector_16" filter="url(#filter3_di_884_42077)">
<path d="M38.0199 22.69L30.2208 29.3148L27.0149 32.0383H21.3798C21.0682 32.0358 20.7591 32.0958 20.4705 32.2146C20.1819 32.3335 19.9194 32.5089 19.6981 32.7308C19.4769 32.9527 19.3013 33.2167 19.1815 33.5075C19.0617 33.7983 19 34.1102 19 34.4253V45.556C19.0016 46.1886 19.2509 46.7948 19.6934 47.242C20.1359 47.6893 20.7356 47.9413 21.3613 47.943H27.0149L30.2147 50.6602L38.0199 57.31C38.4423 57.6701 38.9578 57.9006 39.5055 57.9744C40.0533 58.0481 40.6105 57.962 41.1114 57.7262C41.6123 57.4903 42.036 57.1147 42.3327 56.6434C42.6294 56.1722 42.7865 55.625 42.7857 55.0664V24.9336C42.7865 24.375 42.6294 23.8278 42.3327 23.3566C42.036 22.8853 41.6123 22.5097 41.1114 22.2738C40.6105 22.038 40.0533 21.9519 39.5055 22.0256C38.9578 22.0994 38.4423 22.3299 38.0199 22.69Z" fill="#E2E2FF"/>
</g>
<g id="Vector_17" filter="url(#filter4_di_884_42077)">
<path d="M54.3128 31.6867C53.8948 31.247 53.3284 31 52.7379 31C52.1474 31 51.581 31.247 51.163 31.6867C50.9531 31.903 50.7864 32.1613 50.6725 32.4465C50.5586 32.7317 50.5 33.038 50.5 33.3474C50.5 33.6569 50.5586 33.9632 50.6725 34.2484C50.7864 34.5336 50.9531 34.7919 51.163 35.0082C52.4158 36.3357 53.1191 38.1323 53.1191 40.0051C53.1191 41.8779 52.4158 43.6745 51.163 45.002C50.9531 45.2182 50.7864 45.4766 50.6725 45.7618C50.5586 46.0469 50.5 46.3533 50.5 46.6627C50.5 46.9721 50.5586 47.2784 50.6725 47.5636C50.7864 47.8488 50.9531 48.1071 51.163 48.3234C51.3654 48.5429 51.6084 48.7161 51.8769 48.8324C52.1454 48.9487 52.4337 49.0056 52.724 48.9995C53.0184 49.0061 53.3111 48.9496 53.5842 48.8334C53.8573 48.7172 54.1052 48.5437 54.3128 48.3234C56.3997 46.1143 57.5714 43.1232 57.5714 40.0051C57.5714 36.8869 56.3997 33.8958 54.3128 31.6867Z" fill="#E2E2FF"/>
</g>
<g id="Vector_18" style="mix-blend-mode:color">
<path d="M38.0199 22.69L30.2208 29.3148L27.3749 31.7325C27.1425 31.9299 26.8475 32.0383 26.5425 32.0383H21.3798C21.0682 32.0358 20.7591 32.0958 20.4705 32.2146C20.1819 32.3335 19.9194 32.5089 19.6981 32.7308C19.4769 32.9527 19.3013 33.2167 19.1815 33.5075C19.0617 33.7983 19 34.1102 19 34.4253V45.556C19.0016 46.1886 19.2509 46.7948 19.6934 47.242C20.1359 47.6893 20.7356 47.9413 21.3613 47.943H26.5426C26.8475 47.943 27.1425 48.0513 27.3749 48.2487L30.2147 50.6602L38.0199 57.31C38.4423 57.6701 38.9578 57.9006 39.5055 57.9744C40.0533 58.0481 40.6105 57.962 41.1114 57.7262C41.6123 57.4903 42.036 57.1147 42.3327 56.6434C42.6294 56.1722 42.7865 55.625 42.7857 55.0664V24.9336C42.7865 24.375 42.6294 23.8278 42.3327 23.3566C42.036 22.8853 41.6123 22.5097 41.1114 22.2738C40.6105 22.038 40.0533 21.9519 39.5055 22.0256C38.9578 22.0994 38.4423 22.3299 38.0199 22.69Z" fill="url(#paint10_linear_884_42077)" fill-opacity="0.4"/>
</g>
<g id="Vector_19" style="mix-blend-mode:color">
<path d="M54.3128 31.6867C53.8948 31.247 53.3284 31 52.7379 31C52.1474 31 51.581 31.247 51.163 31.6867C50.9531 31.903 50.7864 32.1613 50.6725 32.4465C50.5586 32.7317 50.5 33.038 50.5 33.3474C50.5 33.6569 50.5586 33.9632 50.6725 34.2484C50.7864 34.5336 50.9531 34.7919 51.163 35.0082C52.4158 36.3357 53.1191 38.1323 53.1191 40.0051C53.1191 41.8779 52.4158 43.6745 51.163 45.002C50.9531 45.2182 50.7864 45.4766 50.6725 45.7618C50.5586 46.0469 50.5 46.3533 50.5 46.6627C50.5 46.9721 50.5586 47.2784 50.6725 47.5636C50.7864 47.8488 50.9531 48.1071 51.163 48.3234C51.3654 48.5429 51.6084 48.7161 51.8769 48.8324C52.1454 48.9487 52.4337 49.0056 52.724 48.9995C53.0184 49.0061 53.3111 48.9496 53.5842 48.8334C53.8573 48.7172 54.1052 48.5437 54.3128 48.3234C56.3997 46.1143 57.5714 43.1232 57.5714 40.0051C57.5714 36.8869 56.3997 33.8958 54.3128 31.6867Z" fill="url(#paint11_linear_884_42077)" fill-opacity="0.4"/>
</g>
</g>
</g>
</g>
<defs>
<filter id="filter0_diii_884_42077" x="0" y="0" width="82" height="82" filterUnits="userSpaceOnUse" color-interpolation-filters="sRGB">
<feFlood flood-opacity="0" result="BackgroundImageFix"/>
<feColorMatrix in="SourceAlpha" type="matrix" values="0 0 0 0 0 0 0 0 0 0 0 0 0 0 0 0 0 0 127 0" result="hardAlpha"/>
<feMorphology radius="1" operator="dilate" in="SourceAlpha" result="effect1_dropShadow_884_42077"/>
<feOffset dy="1"/>
<feComposite in2="hardAlpha" operator="out"/>
<feColorMatrix type="matrix" values="0 0 0 0 0 0 0 0 0 0 0 0 0 0 0 0 0 0 0.25 0"/>
<feBlend mode="normal" in2="BackgroundImageFix" result="effect1_dropShadow_884_42077"/>
<feBlend mode="normal" in="SourceGraphic" in2="effect1_dropShadow_884_42077" result="shape"/>
<feColorMatrix in="SourceAlpha" type="matrix" values="0 0 0 0 0 0 0 0 0 0 0 0 0 0 0 0 0 0 127 0" result="hardAlpha"/>
<feOffset dy="-2"/>
<feComposite in2="hardAlpha" operator="arithmetic" k2="-1" k3="1"/>
<feColorMatrix type="matrix" values="0 0 0 0 0 0 0 0 0 0 0 0 0 0 0 0 0 0 0.1 0"/>
<feBlend mode="normal" in2="shape" result="effect2_innerShadow_884_42077"/>
<feColorMatrix in="SourceAlpha" type="matrix" values="0 0 0 0 0 0 0 0 0 0 0 0 0 0 0 0 0 0 127 0" result="hardAlpha"/>
<feOffset dy="2"/>
<feComposite in2="hardAlpha" operator="arithmetic" k2="-1" k3="1"/>
<feColorMatrix type="matrix" values="0 0 0 0 0.33382 0 0 0 0 0 0 0 0 0 0 0 0 0 0.1 0"/>
<feBlend mode="normal" in2="effect2_innerShadow_884_42077" result="effect3_innerShadow_884_42077"/>
<feColorMatrix in="SourceAlpha" type="matrix" values="0 0 0 0 0 0 0 0 0 0 0 0 0 0 0 0 0 0 127 0" result="hardAlpha"/>
<feMorphology radius="2" operator="erode" in="SourceAlpha" result="effect4_innerShadow_884_42077"/>
<feOffset/>
<feComposite in2="hardAlpha" operator="arithmetic" k2="-1" k3="1"/>
<feColorMatrix type="matrix" values="0 0 0 0 0 0 0 0 0 0 0 0 0 0 0 0 0 0 0.05 0"/>
<feBlend mode="normal" in2="effect3_innerShadow_884_42077" result="effect4_innerShadow_884_42077"/>
</filter>
<filter id="filter1_di_884_42077" x="7" y="6" width="68" height="68" filterUnits="userSpaceOnUse" color-interpolation-filters="sRGB">
<feFlood flood-opacity="0" result="BackgroundImageFix"/>
<feColorMatrix in="SourceAlpha" type="matrix" values="0 0 0 0 0 0 0 0 0 0 0 0 0 0 0 0 0 0 127 0" result="hardAlpha"/>
<feMorphology radius="1" operator="dilate" in="SourceAlpha" result="effect1_dropShadow_884_42077"/>
<feOffset/>
<feGaussianBlur stdDeviation="1"/>
<feComposite in2="hardAlpha" operator="out"/>
<feColorMatrix type="matrix" values="0 0 0 0 0 0 0 0 0 0 0 0 0 0 0 0 0 0 0.1 0"/>
<feBlend mode="normal" in2="BackgroundImageFix" result="effect1_dropShadow_884_42077"/>
<feBlend mode="normal" in="SourceGraphic" in2="effect1_dropShadow_884_42077" result="shape"/>
<feColorMatrix in="SourceAlpha" type="matrix" values="0 0 0 0 0 0 0 0 0 0 0 0 0 0 0 0 0 0 127 0" result="hardAlpha"/>
<feMorphology radius="2" operator="erode" in="SourceAlpha" result="effect2_innerShadow_884_42077"/>
<feOffset/>
<feGaussianBlur stdDeviation="0.25"/>
<feComposite in2="hardAlpha" operator="arithmetic" k2="-1" k3="1"/>
<feColorMatrix type="matrix" values="0 0 0 0 0.2925 0 0 0 0 0 0 0 0 0 0 0 0 0 0.1 0"/>
<feBlend mode="normal" in2="shape" result="effect2_innerShadow_884_42077"/>
</filter>
<filter id="filter2_f_884_42077" x="9" y="8" width="64" height="64" filterUnits="userSpaceOnUse" color-interpolation-filters="sRGB">
<feFlood flood-opacity="0" result="BackgroundImageFix"/>
<feBlend mode="normal" in="SourceGraphic" in2="BackgroundImageFix" result="shape"/>
<feGaussianBlur stdDeviation="2" result="effect1_foregroundBlur_884_42077"/>
</filter>
<filter id="filter3_di_884_42077" x="18.3571" y="22" width="25.0714" height="37.9286" filterUnits="userSpaceOnUse" color-interpolation-filters="sRGB">
<feFlood flood-opacity="0" result="BackgroundImageFix"/>
<feColorMatrix in="SourceAlpha" type="matrix" values="0 0 0 0 0 0 0 0 0 0 0 0 0 0 0 0 0 0 127 0" result="hardAlpha"/>
<feOffset dy="1.28571"/>
<feGaussianBlur stdDeviation="0.321429"/>
<feComposite in2="hardAlpha" operator="out"/>
<feColorMatrix type="matrix" values="0 0 0 0 0 0 0 0 0 0 0 0 0 0 0 0 0 0 0.2 0"/>
<feBlend mode="normal" in2="BackgroundImageFix" result="effect1_dropShadow_884_42077"/>
<feBlend mode="normal" in="SourceGraphic" in2="effect1_dropShadow_884_42077" result="shape"/>
<feColorMatrix in="SourceAlpha" type="matrix" values="0 0 0 0 0 0 0 0 0 0 0 0 0 0 0 0 0 0 127 0" result="hardAlpha"/>
<feOffset dy="-0.964286"/>
<feComposite in2="hardAlpha" operator="arithmetic" k2="-1" k3="1"/>
<feColorMatrix type="matrix" values="0 0 0 0 0.207843 0 0 0 0 0.121569 0 0 0 0 0.282353 0 0 0 0.5 0"/>
<feBlend mode="normal" in2="shape" result="effect2_innerShadow_884_42077"/>
</filter>
<filter id="filter4_di_884_42077" x="49.8571" y="31" width="8.357" height="19.9286" filterUnits="userSpaceOnUse" color-interpolation-filters="sRGB">
<feFlood flood-opacity="0" result="BackgroundImageFix"/>
<feColorMatrix in="SourceAlpha" type="matrix" values="0 0 0 0 0 0 0 0 0 0 0 0 0 0 0 0 0 0 127 0" result="hardAlpha"/>
<feOffset dy="1.28571"/>
<feGaussianBlur stdDeviation="0.321429"/>
<feComposite in2="hardAlpha" operator="out"/>
<feColorMatrix type="matrix" values="0 0 0 0 0 0 0 0 0 0 0 0 0 0 0 0 0 0 0.2 0"/>
<feBlend mode="normal" in2="BackgroundImageFix" result="effect1_dropShadow_884_42077"/>
<feBlend mode="normal" in="SourceGraphic" in2="effect1_dropShadow_884_42077" result="shape"/>
<feColorMatrix in="SourceAlpha" type="matrix" values="0 0 0 0 0 0 0 0 0 0 0 0 0 0 0 0 0 0 127 0" result="hardAlpha"/>
<feOffset dy="-0.964286"/>
<feComposite in2="hardAlpha" operator="arithmetic" k2="-1" k3="1"/>
<feColorMatrix type="matrix" values="0 0 0 0 0.207843 0 0 0 0 0.121569 0 0 0 0 0.282353 0 0 0 0.5 0"/>
<feBlend mode="normal" in2="shape" result="effect2_innerShadow_884_42077"/>
</filter>
<linearGradient id="paint0_linear_884_42077" x1="75.7221" y1="9.23673" x2="26.6246" y2="10.1601" gradientUnits="userSpaceOnUse">
<stop stop-color="#FF3D00"/>
<stop offset="1" stop-color="#993859"/>
</linearGradient>
<linearGradient id="paint1_linear_884_42077" x1="10.4374" y1="15.3544" x2="-6.65695" y2="11.4231" gradientUnits="userSpaceOnUse">
<stop stop-color="#F5277D"/>
<stop offset="1" stop-color="#993859"/>
</linearGradient>
<linearGradient id="paint2_linear_884_42077" x1="50.046" y1="0.177994" x2="18.483" y2="0.763132" gradientUnits="userSpaceOnUse">
<stop stop-color="#891244"/>
<stop offset="1" stop-color="#993859"/>
</linearGradient>
<linearGradient id="paint3_linear_884_42077" x1="52.1777" y1="66.8959" x2="95.4379" y2="66.318" gradientUnits="userSpaceOnUse">
<stop stop-color="#891244"/>
<stop offset="1" stop-color="#993859"/>
</linearGradient>
<linearGradient id="paint4_linear_884_42077" x1="93.2023" y1="61.981" x2="40.591" y2="61.1925" gradientUnits="userSpaceOnUse">
<stop stop-color="#F5277D"/>
<stop offset="1" stop-color="#993859"/>
</linearGradient>
<linearGradient id="paint5_linear_884_42077" x1="23.9121" y1="2.61019" x2="-29.8604" y2="3.64579" gradientUnits="userSpaceOnUse">
<stop stop-color="#891244"/>
<stop offset="1" stop-color="#993859"/>
</linearGradient>
<linearGradient id="paint6_linear_884_42077" x1="43.6035" y1="-7.2959" x2="-32.137" y2="-2.76868" gradientUnits="userSpaceOnUse">
<stop stop-color="#891244"/>
<stop offset="1" stop-color="#993859"/>
</linearGradient>
<radialGradient id="paint7_radial_884_42077" cx="0" cy="0" r="1" gradientUnits="userSpaceOnUse" gradientTransform="translate(41 40) rotate(90) scale(46.0607 37.5675)">
<stop stop-color="white"/>
<stop offset="1" stop-color="white" stop-opacity="0"/>
</radialGradient>
<linearGradient id="paint8_linear_884_42077" x1="41" y1="0" x2="41" y2="80" gradientUnits="userSpaceOnUse">
<stop stop-color="#8677E2"/>
<stop offset="1" stop-color="#F3AEEC" stop-opacity="0.7"/>
</linearGradient>
<radialGradient id="paint9_radial_884_42077" cx="0" cy="0" r="1" gradientUnits="userSpaceOnUse" gradientTransform="translate(41 40) rotate(90) scale(59.5001 57.1911)">
<stop stop-color="#6349FF"/>
<stop offset="1" stop-color="#FF5BEF" stop-opacity="0.7"/>
</radialGradient>
<linearGradient id="paint10_linear_884_42077" x1="30.8929" y1="22" x2="30.8929" y2="58" gradientUnits="userSpaceOnUse">
<stop stop-color="#8677E2"/>
<stop offset="1" stop-color="#F3AEEC"/>
</linearGradient>
<linearGradient id="paint11_linear_884_42077" x1="53.7143" y1="31" x2="53.7143" y2="49" gradientUnits="userSpaceOnUse">
<stop stop-color="#8677E2"/>
<stop offset="1" stop-color="#F3AEEC"/>
</linearGradient>
</defs>
</svg>
