<svg width="42" height="59" viewBox="0 0 42 59" fill="none" xmlns="http://www.w3.org/2000/svg">
<g id="Button/Icon/ArrowRight-Thin">
<g id="Vector" filter="url(#filter0_di_883_39440)">
<path d="M38.312 22.2597L12.349 1.51869C11.6228 0.939323 10.7921 0.511861 9.90426 0.260708C9.01645 0.00955455 8.08894 -0.0603711 7.17469 0.0549232C6.26044 0.170217 5.37735 0.468474 4.57585 0.932663C3.77436 1.39685 3.07014 2.01788 2.50342 2.7603C1.35886 4.25967 0.843816 6.16245 1.07158 8.05004C1.29935 9.93763 2.25127 11.6554 3.71794 12.8255L22.7123 27.9894L3.71794 43.1635C2.98661 43.7391 2.37438 44.4573 1.9168 45.2767C1.45923 46.0961 1.16541 47.0002 1.05242 47.9366C0.939432 48.873 1.00951 49.823 1.2586 50.7315C1.50768 51.64 1.93081 52.4888 2.50342 53.2287C3.06709 53.9756 3.77026 54.6006 4.57211 55.0675C5.37396 55.5343 6.25851 55.8337 7.17445 55.9482C8.09038 56.0628 9.01945 55.9903 9.90774 55.7348C10.796 55.4794 11.6258 55.0461 12.349 54.4602L38.312 33.7293C39.151 33.0398 39.8281 32.1666 40.2933 31.1741C40.7585 30.1816 41 29.0951 41 27.9945C41 26.894 40.7585 25.8074 40.2933 24.8149C39.8281 23.8224 39.151 22.9492 38.312 22.2597Z" fill="#E2E2FF"/>
</g>
<g id="Vector_2" style="mix-blend-mode:color">
<path d="M38.312 22.2597L12.349 1.51869C11.6228 0.939323 10.7921 0.511861 9.90426 0.260708C9.01645 0.00955455 8.08894 -0.0603711 7.17469 0.0549232C6.26044 0.170217 5.37735 0.468474 4.57585 0.932663C3.77436 1.39685 3.07014 2.01788 2.50342 2.7603C1.35886 4.25967 0.843816 6.16245 1.07158 8.05004C1.29935 9.93763 2.25127 11.6554 3.71794 12.8255L20.7552 26.427C21.7579 27.2275 21.7581 28.7517 20.7557 29.5526L3.71794 43.1635C2.98661 43.7391 2.37438 44.4573 1.9168 45.2767C1.45923 46.0961 1.16541 47.0002 1.05242 47.9366C0.939432 48.873 1.00951 49.823 1.2586 50.7315C1.50768 51.64 1.93081 52.4888 2.50342 53.2287C3.06709 53.9756 3.77026 54.6006 4.57211 55.0675C5.37396 55.5343 6.25851 55.8337 7.17445 55.9482C8.09038 56.0628 9.01945 55.9903 9.90774 55.7348C10.796 55.4794 11.6258 55.0461 12.349 54.4602L38.312 33.7293C39.151 33.0398 39.8281 32.1666 40.2933 31.1741C40.7585 30.1816 41 29.0951 41 27.9945C41 26.894 40.7585 25.8074 40.2933 24.8149C39.8281 23.8224 39.151 22.9492 38.312 22.2597Z" fill="url(#paint0_linear_883_39440)" fill-opacity="0.4"/>
</g>
</g>
<defs>
<filter id="filter0_di_883_39440" x="0" y="0.000976562" width="42" height="59" filterUnits="userSpaceOnUse" color-interpolation-filters="sRGB">
<feFlood flood-opacity="0" result="BackgroundImageFix"/>
<feColorMatrix in="SourceAlpha" type="matrix" values="0 0 0 0 0 0 0 0 0 0 0 0 0 0 0 0 0 0 127 0" result="hardAlpha"/>
<feOffset dy="2"/>
<feGaussianBlur stdDeviation="0.5"/>
<feComposite in2="hardAlpha" operator="out"/>
<feColorMatrix type="matrix" values="0 0 0 0 0 0 0 0 0 0 0 0 0 0 0 0 0 0 0.2 0"/>
<feBlend mode="normal" in2="BackgroundImageFix" result="effect1_dropShadow_883_39440"/>
<feBlend mode="normal" in="SourceGraphic" in2="effect1_dropShadow_883_39440" result="shape"/>
<feColorMatrix in="SourceAlpha" type="matrix" values="0 0 0 0 0 0 0 0 0 0 0 0 0 0 0 0 0 0 127 0" result="hardAlpha"/>
<feOffset dy="-1.5"/>
<feComposite in2="hardAlpha" operator="arithmetic" k2="-1" k3="1"/>
<feColorMatrix type="matrix" values="0 0 0 0 0.207843 0 0 0 0 0.121569 0 0 0 0 0.282353 0 0 0 0.5 0"/>
<feBlend mode="normal" in2="shape" result="effect2_innerShadow_883_39440"/>
</filter>
<linearGradient id="paint0_linear_883_39440" x1="9.5" y1="0.000977182" x2="8" y2="56.001" gradientUnits="userSpaceOnUse">
<stop stop-color="#8677E2"/>
<stop offset="1" stop-color="#F3AEEC"/>
</linearGradient>
</defs>
</svg>
