<svg width="42" height="59" viewBox="0 0 42 59" fill="none" xmlns="http://www.w3.org/2000/svg">
<g id="Button/Icon/ArrowLeft-Thin">
<g id="Button/Icon/ArrowLeft-Thin_2">
<g id="Vector" filter="url(#filter0_di_884_42113)">
<path d="M3.68802 33.7422L29.651 54.4833C30.3772 55.0626 31.2079 55.4901 32.0957 55.7412C32.9836 55.9924 33.9111 56.0623 34.8253 55.947C35.7396 55.8317 36.6226 55.5335 37.4241 55.0693C38.2256 54.6051 38.9299 53.9841 39.4966 53.2417C40.6411 51.7423 41.1562 49.8395 40.9284 47.9519C40.7006 46.0643 39.7487 44.3465 38.2821 43.1765L19.2877 28.0125L38.2821 12.8384C39.0134 12.2629 39.6256 11.5446 40.0832 10.7253C40.5408 9.90589 40.8346 9.00176 40.9476 8.06537C41.0606 7.12897 40.9905 6.17896 40.7414 5.27048C40.4923 4.362 40.0692 3.51315 39.4966 2.77321C38.9329 2.02633 38.2297 1.40133 37.4279 0.93449C36.626 0.467649 35.7415 0.168263 34.8256 0.0537032C33.9096 -0.0608568 32.9806 0.0116903 32.0923 0.267139C31.204 0.522587 30.3742 0.955849 29.651 1.54178L3.68802 22.2726C2.84896 22.9622 2.1719 23.8353 1.7067 24.8278C1.24149 25.8203 1 26.9069 1 28.0074C1 29.108 1.24149 30.1945 1.7067 31.187C2.1719 32.1795 2.84896 33.0527 3.68802 33.7422Z" fill="#E2E2FF"/>
</g>
<g id="Vector_2" style="mix-blend-mode:color">
<path d="M3.68802 33.7422L29.651 54.4833C30.3772 55.0626 31.2079 55.4901 32.0957 55.7412C32.9836 55.9924 33.9111 56.0623 34.8253 55.947C35.7396 55.8317 36.6226 55.5335 37.4241 55.0693C38.2256 54.6051 38.9299 53.9841 39.4966 53.2417C40.6411 51.7423 41.1562 49.8395 40.9284 47.9519C40.7006 46.0643 39.7487 44.3465 38.2821 43.1765L21.2449 29.575C20.2421 28.7745 20.2419 27.2502 21.2443 26.4494L38.2821 12.8384C39.0134 12.2629 39.6256 11.5446 40.0832 10.7253C40.5408 9.90589 40.8346 9.00176 40.9476 8.06537C41.0606 7.12897 40.9905 6.17896 40.7414 5.27048C40.4923 4.362 40.0692 3.51315 39.4966 2.77321C38.9329 2.02633 38.2297 1.40133 37.4279 0.93449C36.626 0.467649 35.7415 0.168263 34.8256 0.0537032C33.9096 -0.0608568 32.9806 0.0116903 32.0923 0.267139C31.204 0.522587 30.3742 0.955849 29.651 1.54178L3.68802 22.2726C2.84896 22.9622 2.1719 23.8353 1.7067 24.8278C1.24149 25.8203 1 26.9069 1 28.0074C1 29.108 1.24149 30.1945 1.7067 31.187C2.1719 32.1795 2.84896 33.0527 3.68802 33.7422Z" fill="url(#paint0_linear_884_42113)" fill-opacity="0.4"/>
</g>
</g>
</g>
<defs>
<filter id="filter0_di_884_42113" x="0" y="0.000976562" width="42" height="59" filterUnits="userSpaceOnUse" color-interpolation-filters="sRGB">
<feFlood flood-opacity="0" result="BackgroundImageFix"/>
<feColorMatrix in="SourceAlpha" type="matrix" values="0 0 0 0 0 0 0 0 0 0 0 0 0 0 0 0 0 0 127 0" result="hardAlpha"/>
<feOffset dy="2"/>
<feGaussianBlur stdDeviation="0.5"/>
<feComposite in2="hardAlpha" operator="out"/>
<feColorMatrix type="matrix" values="0 0 0 0 0 0 0 0 0 0 0 0 0 0 0 0 0 0 0.2 0"/>
<feBlend mode="normal" in2="BackgroundImageFix" result="effect1_dropShadow_884_42113"/>
<feBlend mode="normal" in="SourceGraphic" in2="effect1_dropShadow_884_42113" result="shape"/>
<feColorMatrix in="SourceAlpha" type="matrix" values="0 0 0 0 0 0 0 0 0 0 0 0 0 0 0 0 0 0 127 0" result="hardAlpha"/>
<feOffset dy="-1.5"/>
<feComposite in2="hardAlpha" operator="arithmetic" k2="-1" k3="1"/>
<feColorMatrix type="matrix" values="0 0 0 0 0.207843 0 0 0 0 0.121569 0 0 0 0 0.282353 0 0 0 0.5 0"/>
<feBlend mode="normal" in2="shape" result="effect2_innerShadow_884_42113"/>
</filter>
<linearGradient id="paint0_linear_884_42113" x1="32.5" y1="56.001" x2="34" y2="0.000976989" gradientUnits="userSpaceOnUse">
<stop stop-color="#F3AEEC"/>
<stop offset="1" stop-color="#8677E2"/>
</linearGradient>
</defs>
</svg>
