<svg width="44" height="59" viewBox="0 0 44 59" fill="none" xmlns="http://www.w3.org/2000/svg">
<g id="Button/Icon/ArrowLeft-Bold">
<g id="Button/Icon/ArrowLeft-Bold_2">
<g id="ArrowLeft" filter="url(#filter0_di_884_42104)">
<path d="M4.01224 34.0211C-0.00407881 30.9029 -0.00407826 24.9783 4.01224 21.8601L29.9467 1.72479C35.2058 -2.35829 43 1.27245 43 7.80531L43 48.0759C43 54.6088 35.2058 58.2395 29.9467 54.1564L4.01224 34.0211Z" fill="#E2E2FF"/>
</g>
<g id="ArrowLeft_2" style="mix-blend-mode:color">
<path d="M4.01224 34.0211C-0.00407881 30.9029 -0.00407826 24.9783 4.01224 21.8601L29.9467 1.72479C35.2058 -2.35829 43 1.27245 43 7.80531L43 48.0759C43 54.6088 35.2058 58.2395 29.9467 54.1564L4.01224 34.0211Z" fill="url(#paint0_linear_884_42104)" fill-opacity="0.4"/>
</g>
</g>
</g>
<defs>
<filter id="filter0_di_884_42104" x="0" y="0.00134277" width="44" height="58.8785" filterUnits="userSpaceOnUse" color-interpolation-filters="sRGB">
<feFlood flood-opacity="0" result="BackgroundImageFix"/>
<feColorMatrix in="SourceAlpha" type="matrix" values="0 0 0 0 0 0 0 0 0 0 0 0 0 0 0 0 0 0 127 0" result="hardAlpha"/>
<feOffset dy="2"/>
<feGaussianBlur stdDeviation="0.5"/>
<feComposite in2="hardAlpha" operator="out"/>
<feColorMatrix type="matrix" values="0 0 0 0 0 0 0 0 0 0 0 0 0 0 0 0 0 0 0.2 0"/>
<feBlend mode="normal" in2="BackgroundImageFix" result="effect1_dropShadow_884_42104"/>
<feBlend mode="normal" in="SourceGraphic" in2="effect1_dropShadow_884_42104" result="shape"/>
<feColorMatrix in="SourceAlpha" type="matrix" values="0 0 0 0 0 0 0 0 0 0 0 0 0 0 0 0 0 0 127 0" result="hardAlpha"/>
<feOffset dy="-1.5"/>
<feComposite in2="hardAlpha" operator="arithmetic" k2="-1" k3="1"/>
<feColorMatrix type="matrix" values="0 0 0 0 0.207843 0 0 0 0 0.121569 0 0 0 0 0.282353 0 0 0 0.5 0"/>
<feBlend mode="normal" in2="shape" result="effect2_innerShadow_884_42104"/>
</filter>
<linearGradient id="paint0_linear_884_42104" x1="34.18" y1="55.8799" x2="34.18" y2="0.00132769" gradientUnits="userSpaceOnUse">
<stop stop-color="#F3AEEC"/>
<stop offset="1" stop-color="#8677E2"/>
</linearGradient>
</defs>
</svg>
