<svg width="58" height="59" viewBox="0 0 58 59" fill="none" xmlns="http://www.w3.org/2000/svg">
<g id="Button/Icon/Home">
<g id="Button/Icon/Home_2">
<g id="HomeIcon" filter="url(#filter0_di_884_42103)">
<path d="M56.0594 26.0486L32.7219 2.42287L31.2689 0.952669C30.971 0.650969 30.6173 0.411627 30.228 0.248328C29.8387 0.085029 29.4214 0.000976562 29 0.000976562C28.5786 0.000976562 28.1613 0.085029 27.772 0.248328C27.3827 0.411627 27.029 0.650969 26.7312 0.952669L25.2781 2.42287L1.94057 26.0486C1.64239 26.3499 1.40585 26.7078 1.24446 27.1017C1.08307 27.4956 1 27.9178 1 28.3443C1 28.7707 1.08307 29.1929 1.24446 29.5868C1.40585 29.9807 1.64239 30.3386 1.94057 30.64L3.38167 32.1102C3.6795 32.4119 4.03317 32.6512 4.42248 32.8145C4.81179 32.9778 5.22909 33.0618 5.65052 33.0618C6.07195 33.0618 6.48925 32.9778 6.87856 32.8145C7.26787 32.6512 7.62154 32.4119 7.91937 32.1102L10.6408 29.3565V54.0939C10.6408 54.3446 10.6896 54.5928 10.7845 54.8244C10.8795 55.056 11.0185 55.2664 11.1939 55.4435C11.3692 55.6206 11.5773 55.761 11.8063 55.8567C12.0354 55.9523 12.2808 56.0014 12.5285 56.001H45.0933C45.341 56.0014 45.5862 55.9523 45.8151 55.8566C46.0439 55.7609 46.2518 55.6205 46.4269 55.4433C46.602 55.2661 46.7408 55.0557 46.8354 54.8242C46.93 54.5926 46.9785 54.3445 46.9781 54.0939V28.986L50.0657 32.1102C50.6681 32.7189 51.4847 33.0609 52.3361 33.0609C53.1875 33.0609 54.004 32.7189 54.6064 32.1102L56.0594 30.64C56.3576 30.3386 56.5942 29.9807 56.7555 29.5868C56.9169 29.1929 57 28.7707 57 28.3443C57 27.9178 56.9169 27.4956 56.7555 27.1017C56.5942 26.7078 56.3576 26.3499 56.0594 26.0486Z" fill="#E2E2FF"/>
</g>
<g id="HomeIcon_2" style="mix-blend-mode:color">
<path d="M56.0594 26.0486L32.7219 2.42287L31.2689 0.952669C30.971 0.650969 30.6173 0.411627 30.228 0.248328C29.8387 0.085029 29.4214 0.000976562 29 0.000976562C28.5786 0.000976562 28.1613 0.085029 27.772 0.248328C27.3827 0.411627 27.029 0.650969 26.7312 0.952669L25.2781 2.42287L1.94057 26.0486C1.64239 26.3499 1.40585 26.7078 1.24446 27.1017C1.08307 27.4956 1 27.9178 1 28.3443C1 28.7707 1.08307 29.1929 1.24446 29.5868C1.40585 29.9807 1.64239 30.3386 1.94057 30.64L3.38167 32.1102C3.6795 32.4119 4.03317 32.6512 4.42248 32.8145C4.81179 32.9778 5.22909 33.0618 5.65052 33.0618C6.07195 33.0618 6.48925 32.9778 6.87856 32.8145C7.26787 32.6512 7.62154 32.4119 7.91937 32.1102V32.1102C8.91847 31.0992 10.6408 31.8067 10.6408 33.228V54.0939C10.6408 54.3446 10.6896 54.5928 10.7845 54.8244C10.8795 55.056 11.0185 55.2664 11.1939 55.4435C11.3692 55.6206 11.5773 55.761 11.8063 55.8567C12.0354 55.9523 12.2808 56.0014 12.5285 56.001H45.0933C45.341 56.0014 45.5862 55.9523 45.8151 55.8566C46.0439 55.7609 46.2518 55.6205 46.4269 55.4433C46.602 55.2661 46.7408 55.0557 46.8354 54.8242C46.93 54.5926 46.9785 54.3445 46.9781 54.0939V33.3785C46.9781 31.7659 48.9322 30.9632 50.0657 32.1102V32.1102C50.6681 32.7189 51.4847 33.0609 52.3361 33.0609C53.1875 33.0609 54.004 32.7189 54.6064 32.1102L56.0594 30.64C56.3576 30.3386 56.5942 29.9807 56.7555 29.5868C56.9169 29.1929 57 28.7707 57 28.3443C57 27.9178 56.9169 27.4956 56.7555 27.1017C56.5942 26.7078 56.3576 26.3499 56.0594 26.0486Z" fill="url(#paint0_linear_884_42103)" fill-opacity="0.4"/>
</g>
</g>
</g>
<defs>
<filter id="filter0_di_884_42103" x="0" y="0.000976562" width="58" height="59" filterUnits="userSpaceOnUse" color-interpolation-filters="sRGB">
<feFlood flood-opacity="0" result="BackgroundImageFix"/>
<feColorMatrix in="SourceAlpha" type="matrix" values="0 0 0 0 0 0 0 0 0 0 0 0 0 0 0 0 0 0 127 0" result="hardAlpha"/>
<feOffset dy="2"/>
<feGaussianBlur stdDeviation="0.5"/>
<feComposite in2="hardAlpha" operator="out"/>
<feColorMatrix type="matrix" values="0 0 0 0 0 0 0 0 0 0 0 0 0 0 0 0 0 0 0.2 0"/>
<feBlend mode="normal" in2="BackgroundImageFix" result="effect1_dropShadow_884_42103"/>
<feBlend mode="normal" in="SourceGraphic" in2="effect1_dropShadow_884_42103" result="shape"/>
<feColorMatrix in="SourceAlpha" type="matrix" values="0 0 0 0 0 0 0 0 0 0 0 0 0 0 0 0 0 0 127 0" result="hardAlpha"/>
<feOffset dy="-1.5"/>
<feComposite in2="hardAlpha" operator="arithmetic" k2="-1" k3="1"/>
<feColorMatrix type="matrix" values="0 0 0 0 0.207843 0 0 0 0 0.121569 0 0 0 0 0.282353 0 0 0 0.5 0"/>
<feBlend mode="normal" in2="shape" result="effect2_innerShadow_884_42103"/>
</filter>
<linearGradient id="paint0_linear_884_42103" x1="29" y1="0.000976562" x2="29" y2="56.001" gradientUnits="userSpaceOnUse">
<stop stop-color="#8677E2"/>
<stop offset="1" stop-color="#F3AEEC"/>
</linearGradient>
</defs>
</svg>
