<svg width="58" height="59" viewBox="0 0 58 59" fill="none" xmlns="http://www.w3.org/2000/svg">
<g id="Button/Icon/Levels">
<g id="Button/Icon/Levels_2">
<g id="Group">
<g id="Rectangle" filter="url(#filter0_di_884_42108)">
<path d="M21.65 0.000976562H2.75C1.7835 0.000976562 1 0.784478 1 1.75098V12.251C1 13.2175 1.7835 14.001 2.75 14.001H21.65C22.6165 14.001 23.4 13.2175 23.4 12.251V1.75098C23.4 0.784478 22.6165 0.000976562 21.65 0.000976562Z" fill="#E2E2FF"/>
</g>
<g id="Rectangle_2" filter="url(#filter1_di_884_42108)">
<path d="M21.65 21.001H2.75C1.7835 21.001 1 21.7845 1 22.751V33.251C1 34.2175 1.7835 35.001 2.75 35.001H21.65C22.6165 35.001 23.4 34.2175 23.4 33.251V22.751C23.4 21.7845 22.6165 21.001 21.65 21.001Z" fill="#E2E2FF"/>
</g>
<g id="Rectangle_3" filter="url(#filter2_di_884_42108)">
<path d="M21.65 42.001H2.75C1.7835 42.001 1 42.7845 1 43.751V54.251C1 55.2175 1.7835 56.001 2.75 56.001H21.65C22.6165 56.001 23.4 55.2175 23.4 54.251V43.751C23.4 42.7845 22.6165 42.001 21.65 42.001Z" fill="#E2E2FF"/>
</g>
<g id="Rectangle_4" filter="url(#filter3_di_884_42108)">
<path d="M55.2496 0.000976562H36.3496C35.3831 0.000976562 34.5996 0.784478 34.5996 1.75098V12.251C34.5996 13.2175 35.3831 14.001 36.3496 14.001H55.2496C56.2161 14.001 56.9996 13.2175 56.9996 12.251V1.75098C56.9996 0.784478 56.2161 0.000976562 55.2496 0.000976562Z" fill="#E2E2FF"/>
</g>
<g id="Rectangle_5" filter="url(#filter4_di_884_42108)">
<path d="M55.2496 21.001H36.3496C35.3831 21.001 34.5996 21.7845 34.5996 22.751V33.251C34.5996 34.2175 35.3831 35.001 36.3496 35.001H55.2496C56.2161 35.001 56.9996 34.2175 56.9996 33.251V22.751C56.9996 21.7845 56.2161 21.001 55.2496 21.001Z" fill="#E2E2FF"/>
</g>
<g id="Rectangle_6" filter="url(#filter5_di_884_42108)">
<path d="M55.2496 42.001H36.3496C35.3831 42.001 34.5996 42.7845 34.5996 43.751V54.251C34.5996 55.2175 35.3831 56.001 36.3496 56.001H55.2496C56.2161 56.001 56.9996 55.2175 56.9996 54.251V43.751C56.9996 42.7845 56.2161 42.001 55.2496 42.001Z" fill="#E2E2FF"/>
</g>
</g>
<g id="Group_2">
<g id="Rectangle_7" style="mix-blend-mode:color">
<path d="M21.65 0.000976562H2.75C1.7835 0.000976562 1 0.784478 1 1.75098V12.251C1 13.2175 1.7835 14.001 2.75 14.001H21.65C22.6165 14.001 23.4 13.2175 23.4 12.251V1.75098C23.4 0.784478 22.6165 0.000976562 21.65 0.000976562Z" fill="url(#paint0_linear_884_42108)" fill-opacity="0.4"/>
</g>
<g id="Rectangle_8" style="mix-blend-mode:color">
<path d="M21.65 21.001H2.75C1.7835 21.001 1 21.7845 1 22.751V33.251C1 34.2175 1.7835 35.001 2.75 35.001H21.65C22.6165 35.001 23.4 34.2175 23.4 33.251V22.751C23.4 21.7845 22.6165 21.001 21.65 21.001Z" fill="url(#paint1_linear_884_42108)" fill-opacity="0.4"/>
</g>
<g id="Rectangle_9" style="mix-blend-mode:color">
<path d="M21.65 42.001H2.75C1.7835 42.001 1 42.7845 1 43.751V54.251C1 55.2175 1.7835 56.001 2.75 56.001H21.65C22.6165 56.001 23.4 55.2175 23.4 54.251V43.751C23.4 42.7845 22.6165 42.001 21.65 42.001Z" fill="url(#paint2_linear_884_42108)" fill-opacity="0.4"/>
</g>
<g id="Rectangle_10" style="mix-blend-mode:color">
<path d="M55.2496 0.000976562H36.3496C35.3831 0.000976562 34.5996 0.784478 34.5996 1.75098V12.251C34.5996 13.2175 35.3831 14.001 36.3496 14.001H55.2496C56.2161 14.001 56.9996 13.2175 56.9996 12.251V1.75098C56.9996 0.784478 56.2161 0.000976562 55.2496 0.000976562Z" fill="url(#paint3_linear_884_42108)" fill-opacity="0.4"/>
</g>
<g id="Rectangle_11" style="mix-blend-mode:color">
<path d="M55.2496 21.001H36.3496C35.3831 21.001 34.5996 21.7845 34.5996 22.751V33.251C34.5996 34.2175 35.3831 35.001 36.3496 35.001H55.2496C56.2161 35.001 56.9996 34.2175 56.9996 33.251V22.751C56.9996 21.7845 56.2161 21.001 55.2496 21.001Z" fill="url(#paint4_linear_884_42108)" fill-opacity="0.4"/>
</g>
<g id="Rectangle_12" style="mix-blend-mode:color">
<path d="M55.2496 42.001H36.3496C35.3831 42.001 34.5996 42.7845 34.5996 43.751V54.251C34.5996 55.2175 35.3831 56.001 36.3496 56.001H55.2496C56.2161 56.001 56.9996 55.2175 56.9996 54.251V43.751C56.9996 42.7845 56.2161 42.001 55.2496 42.001Z" fill="url(#paint5_linear_884_42108)" fill-opacity="0.4"/>
</g>
</g>
</g>
</g>
<defs>
<filter id="filter0_di_884_42108" x="0" y="0.000976562" width="24.3999" height="17" filterUnits="userSpaceOnUse" color-interpolation-filters="sRGB">
<feFlood flood-opacity="0" result="BackgroundImageFix"/>
<feColorMatrix in="SourceAlpha" type="matrix" values="0 0 0 0 0 0 0 0 0 0 0 0 0 0 0 0 0 0 127 0" result="hardAlpha"/>
<feOffset dy="2"/>
<feGaussianBlur stdDeviation="0.5"/>
<feComposite in2="hardAlpha" operator="out"/>
<feColorMatrix type="matrix" values="0 0 0 0 0 0 0 0 0 0 0 0 0 0 0 0 0 0 0.2 0"/>
<feBlend mode="normal" in2="BackgroundImageFix" result="effect1_dropShadow_884_42108"/>
<feBlend mode="normal" in="SourceGraphic" in2="effect1_dropShadow_884_42108" result="shape"/>
<feColorMatrix in="SourceAlpha" type="matrix" values="0 0 0 0 0 0 0 0 0 0 0 0 0 0 0 0 0 0 127 0" result="hardAlpha"/>
<feOffset dy="-1.5"/>
<feComposite in2="hardAlpha" operator="arithmetic" k2="-1" k3="1"/>
<feColorMatrix type="matrix" values="0 0 0 0 0.207843 0 0 0 0 0.121569 0 0 0 0 0.282353 0 0 0 0.5 0"/>
<feBlend mode="normal" in2="shape" result="effect2_innerShadow_884_42108"/>
</filter>
<filter id="filter1_di_884_42108" x="0" y="21.001" width="24.3999" height="17" filterUnits="userSpaceOnUse" color-interpolation-filters="sRGB">
<feFlood flood-opacity="0" result="BackgroundImageFix"/>
<feColorMatrix in="SourceAlpha" type="matrix" values="0 0 0 0 0 0 0 0 0 0 0 0 0 0 0 0 0 0 127 0" result="hardAlpha"/>
<feOffset dy="2"/>
<feGaussianBlur stdDeviation="0.5"/>
<feComposite in2="hardAlpha" operator="out"/>
<feColorMatrix type="matrix" values="0 0 0 0 0 0 0 0 0 0 0 0 0 0 0 0 0 0 0.2 0"/>
<feBlend mode="normal" in2="BackgroundImageFix" result="effect1_dropShadow_884_42108"/>
<feBlend mode="normal" in="SourceGraphic" in2="effect1_dropShadow_884_42108" result="shape"/>
<feColorMatrix in="SourceAlpha" type="matrix" values="0 0 0 0 0 0 0 0 0 0 0 0 0 0 0 0 0 0 127 0" result="hardAlpha"/>
<feOffset dy="-1.5"/>
<feComposite in2="hardAlpha" operator="arithmetic" k2="-1" k3="1"/>
<feColorMatrix type="matrix" values="0 0 0 0 0.207843 0 0 0 0 0.121569 0 0 0 0 0.282353 0 0 0 0.5 0"/>
<feBlend mode="normal" in2="shape" result="effect2_innerShadow_884_42108"/>
</filter>
<filter id="filter2_di_884_42108" x="0" y="42.001" width="24.3999" height="17" filterUnits="userSpaceOnUse" color-interpolation-filters="sRGB">
<feFlood flood-opacity="0" result="BackgroundImageFix"/>
<feColorMatrix in="SourceAlpha" type="matrix" values="0 0 0 0 0 0 0 0 0 0 0 0 0 0 0 0 0 0 127 0" result="hardAlpha"/>
<feOffset dy="2"/>
<feGaussianBlur stdDeviation="0.5"/>
<feComposite in2="hardAlpha" operator="out"/>
<feColorMatrix type="matrix" values="0 0 0 0 0 0 0 0 0 0 0 0 0 0 0 0 0 0 0.2 0"/>
<feBlend mode="normal" in2="BackgroundImageFix" result="effect1_dropShadow_884_42108"/>
<feBlend mode="normal" in="SourceGraphic" in2="effect1_dropShadow_884_42108" result="shape"/>
<feColorMatrix in="SourceAlpha" type="matrix" values="0 0 0 0 0 0 0 0 0 0 0 0 0 0 0 0 0 0 127 0" result="hardAlpha"/>
<feOffset dy="-1.5"/>
<feComposite in2="hardAlpha" operator="arithmetic" k2="-1" k3="1"/>
<feColorMatrix type="matrix" values="0 0 0 0 0.207843 0 0 0 0 0.121569 0 0 0 0 0.282353 0 0 0 0.5 0"/>
<feBlend mode="normal" in2="shape" result="effect2_innerShadow_884_42108"/>
</filter>
<filter id="filter3_di_884_42108" x="33.5996" y="0.000976562" width="24.3999" height="17" filterUnits="userSpaceOnUse" color-interpolation-filters="sRGB">
<feFlood flood-opacity="0" result="BackgroundImageFix"/>
<feColorMatrix in="SourceAlpha" type="matrix" values="0 0 0 0 0 0 0 0 0 0 0 0 0 0 0 0 0 0 127 0" result="hardAlpha"/>
<feOffset dy="2"/>
<feGaussianBlur stdDeviation="0.5"/>
<feComposite in2="hardAlpha" operator="out"/>
<feColorMatrix type="matrix" values="0 0 0 0 0 0 0 0 0 0 0 0 0 0 0 0 0 0 0.2 0"/>
<feBlend mode="normal" in2="BackgroundImageFix" result="effect1_dropShadow_884_42108"/>
<feBlend mode="normal" in="SourceGraphic" in2="effect1_dropShadow_884_42108" result="shape"/>
<feColorMatrix in="SourceAlpha" type="matrix" values="0 0 0 0 0 0 0 0 0 0 0 0 0 0 0 0 0 0 127 0" result="hardAlpha"/>
<feOffset dy="-1.5"/>
<feComposite in2="hardAlpha" operator="arithmetic" k2="-1" k3="1"/>
<feColorMatrix type="matrix" values="0 0 0 0 0.207843 0 0 0 0 0.121569 0 0 0 0 0.282353 0 0 0 0.5 0"/>
<feBlend mode="normal" in2="shape" result="effect2_innerShadow_884_42108"/>
</filter>
<filter id="filter4_di_884_42108" x="33.5996" y="21.001" width="24.3999" height="17" filterUnits="userSpaceOnUse" color-interpolation-filters="sRGB">
<feFlood flood-opacity="0" result="BackgroundImageFix"/>
<feColorMatrix in="SourceAlpha" type="matrix" values="0 0 0 0 0 0 0 0 0 0 0 0 0 0 0 0 0 0 127 0" result="hardAlpha"/>
<feOffset dy="2"/>
<feGaussianBlur stdDeviation="0.5"/>
<feComposite in2="hardAlpha" operator="out"/>
<feColorMatrix type="matrix" values="0 0 0 0 0 0 0 0 0 0 0 0 0 0 0 0 0 0 0.2 0"/>
<feBlend mode="normal" in2="BackgroundImageFix" result="effect1_dropShadow_884_42108"/>
<feBlend mode="normal" in="SourceGraphic" in2="effect1_dropShadow_884_42108" result="shape"/>
<feColorMatrix in="SourceAlpha" type="matrix" values="0 0 0 0 0 0 0 0 0 0 0 0 0 0 0 0 0 0 127 0" result="hardAlpha"/>
<feOffset dy="-1.5"/>
<feComposite in2="hardAlpha" operator="arithmetic" k2="-1" k3="1"/>
<feColorMatrix type="matrix" values="0 0 0 0 0.207843 0 0 0 0 0.121569 0 0 0 0 0.282353 0 0 0 0.5 0"/>
<feBlend mode="normal" in2="shape" result="effect2_innerShadow_884_42108"/>
</filter>
<filter id="filter5_di_884_42108" x="33.5996" y="42.001" width="24.3999" height="17" filterUnits="userSpaceOnUse" color-interpolation-filters="sRGB">
<feFlood flood-opacity="0" result="BackgroundImageFix"/>
<feColorMatrix in="SourceAlpha" type="matrix" values="0 0 0 0 0 0 0 0 0 0 0 0 0 0 0 0 0 0 127 0" result="hardAlpha"/>
<feOffset dy="2"/>
<feGaussianBlur stdDeviation="0.5"/>
<feComposite in2="hardAlpha" operator="out"/>
<feColorMatrix type="matrix" values="0 0 0 0 0 0 0 0 0 0 0 0 0 0 0 0 0 0 0.2 0"/>
<feBlend mode="normal" in2="BackgroundImageFix" result="effect1_dropShadow_884_42108"/>
<feBlend mode="normal" in="SourceGraphic" in2="effect1_dropShadow_884_42108" result="shape"/>
<feColorMatrix in="SourceAlpha" type="matrix" values="0 0 0 0 0 0 0 0 0 0 0 0 0 0 0 0 0 0 127 0" result="hardAlpha"/>
<feOffset dy="-1.5"/>
<feComposite in2="hardAlpha" operator="arithmetic" k2="-1" k3="1"/>
<feColorMatrix type="matrix" values="0 0 0 0 0.207843 0 0 0 0 0.121569 0 0 0 0 0.282353 0 0 0 0.5 0"/>
<feBlend mode="normal" in2="shape" result="effect2_innerShadow_884_42108"/>
</filter>
<linearGradient id="paint0_linear_884_42108" x1="12.2" y1="0.000976562" x2="12.2" y2="14.001" gradientUnits="userSpaceOnUse">
<stop stop-color="#8677E2"/>
<stop offset="1" stop-color="#F3AEEC"/>
</linearGradient>
<linearGradient id="paint1_linear_884_42108" x1="12.2" y1="21.001" x2="12.2" y2="35.001" gradientUnits="userSpaceOnUse">
<stop stop-color="#8677E2"/>
<stop offset="1" stop-color="#F3AEEC"/>
</linearGradient>
<linearGradient id="paint2_linear_884_42108" x1="12.2" y1="42.001" x2="12.2" y2="56.001" gradientUnits="userSpaceOnUse">
<stop stop-color="#8677E2"/>
<stop offset="1" stop-color="#F3AEEC"/>
</linearGradient>
<linearGradient id="paint3_linear_884_42108" x1="45.7996" y1="0.000976562" x2="45.7996" y2="14.001" gradientUnits="userSpaceOnUse">
<stop stop-color="#8677E2"/>
<stop offset="1" stop-color="#F3AEEC"/>
</linearGradient>
<linearGradient id="paint4_linear_884_42108" x1="45.7996" y1="21.001" x2="45.7996" y2="35.001" gradientUnits="userSpaceOnUse">
<stop stop-color="#8677E2"/>
<stop offset="1" stop-color="#F3AEEC"/>
</linearGradient>
<linearGradient id="paint5_linear_884_42108" x1="45.7996" y1="42.001" x2="45.7996" y2="56.001" gradientUnits="userSpaceOnUse">
<stop stop-color="#8677E2"/>
<stop offset="1" stop-color="#F3AEEC"/>
</linearGradient>
</defs>
</svg>
