<svg width="52" height="59" viewBox="0 0 52 59" fill="none" xmlns="http://www.w3.org/2000/svg">
<g id="Button/Icon/Play">
<g id="Button/Icon/Play_2">
<g id="Play" filter="url(#filter0_di_884_42109)">
<path d="M47.464 21.8423C52.1787 24.5936 52.1787 31.4083 47.464 34.1596L11.7184 55.019C6.967 57.7917 1 54.3631 1 48.8604L1 7.14159C1.00001 1.63881 6.96701 -1.78974 11.7184 0.982953L47.464 21.8423Z" fill="#E2E2FF"/>
</g>
<g id="Play_2" style="mix-blend-mode:color">
<path d="M47.464 21.8423C52.1787 24.5936 52.1787 31.4083 47.464 34.1596L11.7184 55.019C6.967 57.7917 1 54.3631 1 48.8604L1 7.14159C1.00001 1.63881 6.96701 -1.78974 11.7184 0.982953L47.464 21.8423Z" fill="url(#paint0_linear_884_42109)" fill-opacity="0.4"/>
</g>
</g>
</g>
<defs>
<filter id="filter0_di_884_42109" x="0" y="0.000976562" width="52" height="59" filterUnits="userSpaceOnUse" color-interpolation-filters="sRGB">
<feFlood flood-opacity="0" result="BackgroundImageFix"/>
<feColorMatrix in="SourceAlpha" type="matrix" values="0 0 0 0 0 0 0 0 0 0 0 0 0 0 0 0 0 0 127 0" result="hardAlpha"/>
<feOffset dy="2"/>
<feGaussianBlur stdDeviation="0.5"/>
<feComposite in2="hardAlpha" operator="out"/>
<feColorMatrix type="matrix" values="0 0 0 0 0 0 0 0 0 0 0 0 0 0 0 0 0 0 0.2 0"/>
<feBlend mode="normal" in2="BackgroundImageFix" result="effect1_dropShadow_884_42109"/>
<feBlend mode="normal" in="SourceGraphic" in2="effect1_dropShadow_884_42109" result="shape"/>
<feColorMatrix in="SourceAlpha" type="matrix" values="0 0 0 0 0 0 0 0 0 0 0 0 0 0 0 0 0 0 127 0" result="hardAlpha"/>
<feOffset dy="-1.5"/>
<feComposite in2="hardAlpha" operator="arithmetic" k2="-1" k3="1"/>
<feColorMatrix type="matrix" values="0 0 0 0 0.207843 0 0 0 0 0.121569 0 0 0 0 0.282353 0 0 0 0.5 0"/>
<feBlend mode="normal" in2="shape" result="effect2_innerShadow_884_42109"/>
</filter>
<linearGradient id="paint0_linear_884_42109" x1="11.5" y1="0.00097656" x2="11.5" y2="56.001" gradientUnits="userSpaceOnUse">
<stop stop-color="#8677E2"/>
<stop offset="1" stop-color="#F3AEEC"/>
</linearGradient>
</defs>
</svg>
