<svg width="62" height="59" viewBox="0 0 62 59" fill="none" xmlns="http://www.w3.org/2000/svg">
<g id="Button/Icon/SoundOn">
<g id="Button/Icon/SoundOn_2">
<g id="Vector" filter="url(#filter0_di_884_42106)">
<path d="M30.5866 1.07425L18.4546 11.3796L13.4676 15.6161H4.70192C4.21714 15.6123 3.7364 15.7055 3.28743 15.8904C2.83846 16.0753 2.43013 16.3481 2.08599 16.6933C1.74186 17.0385 1.46872 17.4491 1.28233 17.9015C1.09594 18.3539 0.999985 18.8391 1 19.3292V36.6437C1.00253 37.6277 1.39033 38.5706 2.07863 39.2664C2.76693 39.9622 3.69975 40.3542 4.67315 40.3567H13.4676L18.4451 44.5836L30.5866 54.9277C31.2437 55.4879 32.0455 55.8464 32.8975 55.9611C33.7496 56.0758 34.6163 55.9418 35.3955 55.575C36.1747 55.2082 36.8339 54.6238 37.2953 53.8907C37.7568 53.1577 38.0013 52.3065 38 51.4376V4.5643C38.0013 3.69542 37.7568 2.84427 37.2953 2.11122C36.8339 1.37817 36.1747 0.793778 35.3955 0.426951C34.6163 0.0601253 33.7496 -0.0738418 32.8975 0.0408456C32.0455 0.155533 31.2437 0.514093 30.5866 1.07425Z" fill="#E2E2FF"/>
</g>
<g id="Vector_2" filter="url(#filter1_di_884_42106)">
<path d="M55.9311 15.0692C55.2808 14.3851 54.3997 14.001 53.4812 14.001C52.5626 14.001 51.6816 14.3851 51.0313 15.0692C50.7048 15.4056 50.4454 15.8075 50.2683 16.2511C50.0912 16.6947 50 17.1712 50 17.6526C50 18.1339 50.0912 18.6104 50.2683 19.054C50.4454 19.4977 50.7048 19.8995 51.0313 20.2359C52.9801 22.3009 54.0742 25.0956 54.0742 28.0089C54.0742 30.9221 52.9801 33.7168 51.0313 35.7818C50.7048 36.1182 50.4454 36.5201 50.2683 36.9637C50.0912 37.4073 50 37.8838 50 38.3652C50 38.8465 50.0912 39.323 50.2683 39.7666C50.4454 40.2103 50.7048 40.6121 51.0313 40.9485C51.3461 41.2899 51.7241 41.5594 52.1418 41.7403C52.5595 41.9212 53.008 42.0096 53.4595 42.0002C53.9176 42.0105 54.3728 41.9226 54.7977 41.7419C55.2225 41.5611 55.6081 41.2912 55.9311 40.9485C59.1773 37.5121 61 32.8593 61 28.0089C61 23.1584 59.1773 18.5056 55.9311 15.0692Z" fill="#E2E2FF"/>
</g>
<g id="Vector_3" style="mix-blend-mode:color">
<path d="M30.5866 1.07425L18.4546 11.3796L14.0276 15.1404C13.6661 15.4475 13.2072 15.6161 12.7328 15.6161H4.70192C4.21714 15.6123 3.7364 15.7055 3.28743 15.8904C2.83846 16.0753 2.43013 16.3481 2.08599 16.6933C1.74186 17.0385 1.46872 17.4491 1.28233 17.9015C1.09594 18.3539 0.999985 18.8391 1 19.3292V36.6437C1.00253 37.6277 1.39033 38.5706 2.07863 39.2664C2.76693 39.9622 3.69975 40.3542 4.67315 40.3567H12.733C13.2072 40.3567 13.6661 40.5253 14.0276 40.8323L18.445 44.5836L30.5866 54.9277C31.2437 55.4879 32.0455 55.8464 32.8975 55.9611C33.7496 56.0758 34.6163 55.9418 35.3955 55.575C36.1747 55.2082 36.8339 54.6238 37.2953 53.8907C37.7568 53.1577 38.0013 52.3065 38 51.4376V4.5643C38.0013 3.69542 37.7568 2.84427 37.2953 2.11122C36.8339 1.37817 36.1747 0.793778 35.3955 0.426951C34.6163 0.0601253 33.7496 -0.0738418 32.8975 0.0408456C32.0455 0.155533 31.2437 0.514093 30.5866 1.07425Z" fill="url(#paint0_linear_884_42106)" fill-opacity="0.4"/>
</g>
<g id="Vector_4" style="mix-blend-mode:color">
<path d="M55.9311 15.0692C55.2808 14.3851 54.3997 14.001 53.4812 14.001C52.5626 14.001 51.6816 14.3851 51.0313 15.0692C50.7048 15.4056 50.4454 15.8075 50.2683 16.2511C50.0912 16.6947 50 17.1712 50 17.6526C50 18.1339 50.0912 18.6104 50.2683 19.054C50.4454 19.4977 50.7048 19.8995 51.0313 20.2359C52.9801 22.3009 54.0742 25.0956 54.0742 28.0089C54.0742 30.9221 52.9801 33.7168 51.0313 35.7818C50.7048 36.1182 50.4454 36.5201 50.2683 36.9637C50.0912 37.4073 50 37.8838 50 38.3652C50 38.8465 50.0912 39.323 50.2683 39.7666C50.4454 40.2103 50.7048 40.6121 51.0313 40.9485C51.3461 41.2899 51.7241 41.5594 52.1418 41.7403C52.5595 41.9212 53.008 42.0096 53.4595 42.0002C53.9176 42.0105 54.3728 41.9226 54.7977 41.7419C55.2225 41.5611 55.6081 41.2912 55.9311 40.9485C59.1773 37.5121 61 32.8593 61 28.0089C61 23.1584 59.1773 18.5056 55.9311 15.0692Z" fill="url(#paint1_linear_884_42106)" fill-opacity="0.4"/>
</g>
</g>
</g>
<defs>
<filter id="filter0_di_884_42106" x="0" y="0.000976562" width="39" height="59" filterUnits="userSpaceOnUse" color-interpolation-filters="sRGB">
<feFlood flood-opacity="0" result="BackgroundImageFix"/>
<feColorMatrix in="SourceAlpha" type="matrix" values="0 0 0 0 0 0 0 0 0 0 0 0 0 0 0 0 0 0 127 0" result="hardAlpha"/>
<feOffset dy="2"/>
<feGaussianBlur stdDeviation="0.5"/>
<feComposite in2="hardAlpha" operator="out"/>
<feColorMatrix type="matrix" values="0 0 0 0 0 0 0 0 0 0 0 0 0 0 0 0 0 0 0.2 0"/>
<feBlend mode="normal" in2="BackgroundImageFix" result="effect1_dropShadow_884_42106"/>
<feBlend mode="normal" in="SourceGraphic" in2="effect1_dropShadow_884_42106" result="shape"/>
<feColorMatrix in="SourceAlpha" type="matrix" values="0 0 0 0 0 0 0 0 0 0 0 0 0 0 0 0 0 0 127 0" result="hardAlpha"/>
<feOffset dy="-1.5"/>
<feComposite in2="hardAlpha" operator="arithmetic" k2="-1" k3="1"/>
<feColorMatrix type="matrix" values="0 0 0 0 0.207843 0 0 0 0 0.121569 0 0 0 0 0.282353 0 0 0 0.5 0"/>
<feBlend mode="normal" in2="shape" result="effect2_innerShadow_884_42106"/>
</filter>
<filter id="filter1_di_884_42106" x="49" y="14.001" width="13" height="31" filterUnits="userSpaceOnUse" color-interpolation-filters="sRGB">
<feFlood flood-opacity="0" result="BackgroundImageFix"/>
<feColorMatrix in="SourceAlpha" type="matrix" values="0 0 0 0 0 0 0 0 0 0 0 0 0 0 0 0 0 0 127 0" result="hardAlpha"/>
<feOffset dy="2"/>
<feGaussianBlur stdDeviation="0.5"/>
<feComposite in2="hardAlpha" operator="out"/>
<feColorMatrix type="matrix" values="0 0 0 0 0 0 0 0 0 0 0 0 0 0 0 0 0 0 0.2 0"/>
<feBlend mode="normal" in2="BackgroundImageFix" result="effect1_dropShadow_884_42106"/>
<feBlend mode="normal" in="SourceGraphic" in2="effect1_dropShadow_884_42106" result="shape"/>
<feColorMatrix in="SourceAlpha" type="matrix" values="0 0 0 0 0 0 0 0 0 0 0 0 0 0 0 0 0 0 127 0" result="hardAlpha"/>
<feOffset dy="-1.5"/>
<feComposite in2="hardAlpha" operator="arithmetic" k2="-1" k3="1"/>
<feColorMatrix type="matrix" values="0 0 0 0 0.207843 0 0 0 0 0.121569 0 0 0 0 0.282353 0 0 0 0.5 0"/>
<feBlend mode="normal" in2="shape" result="effect2_innerShadow_884_42106"/>
</filter>
<linearGradient id="paint0_linear_884_42106" x1="19.5" y1="0.000976563" x2="19.5" y2="56.001" gradientUnits="userSpaceOnUse">
<stop stop-color="#8677E2"/>
<stop offset="1" stop-color="#F3AEEC"/>
</linearGradient>
<linearGradient id="paint1_linear_884_42106" x1="55" y1="14.001" x2="55" y2="42.001" gradientUnits="userSpaceOnUse">
<stop stop-color="#8677E2"/>
<stop offset="1" stop-color="#F3AEEC"/>
</linearGradient>
</defs>
</svg>
