<svg width="69" height="59" viewBox="0 0 69 59" fill="none" xmlns="http://www.w3.org/2000/svg">
<g id="Button/Icon/SoundOff">
<g id="Button/Icon/SoundOff_2">
<g id="Vector" filter="url(#filter0_di_884_42111)">
<path d="M30.5808 1.06337L18.4394 11.3805L13.4773 15.6081H4.676C3.70185 15.6107 2.76831 16.0028 2.07948 16.6987C1.39064 17.3946 1.00253 18.3377 1 19.3219L1 36.669C0.999997 37.6548 1.38698 38.6004 2.07609 39.2984C2.7652 39.9964 3.70019 40.3898 4.676 40.3924H13.4773L18.4394 44.591L30.5808 54.9275C31.2384 55.4878 32.0409 55.8464 32.8936 55.9611C33.7462 56.0758 34.6136 55.9418 35.3934 55.5749C36.1732 55.208 36.8329 54.6235 37.2948 53.8903C37.7566 53.1571 38.0013 52.3058 38 51.4367V4.55412C37.9974 3.68675 37.7503 2.83807 37.2878 2.10736C36.8252 1.37665 36.1662 0.794128 35.3879 0.427942C34.6096 0.0617562 33.7442 -0.0729518 32.8929 0.0395772C32.0416 0.152106 31.2396 0.507219 30.5808 1.06337Z" fill="#E2E2FF"/>
</g>
<g id="Union" filter="url(#filter1_di_884_42111)">
<path d="M46.9271 17.9281C45.691 19.1644 45.691 21.1687 46.9271 22.405L52.5231 28.001L46.9271 33.597C45.691 34.8332 45.691 36.8375 46.9271 38.0738C48.1633 39.31 50.1677 39.31 51.404 38.0738L57 32.4778L62.596 38.0738C63.8322 39.31 65.8366 39.31 67.0727 38.0738C68.3091 36.8375 68.3091 34.8332 67.0727 33.597L61.4767 28.001L67.0727 22.405C68.3091 21.1687 68.3091 19.1644 67.0727 17.9281C65.8366 16.6919 63.8322 16.6919 62.596 17.9281L57 23.5241L51.404 17.9281C50.1677 16.6919 48.1635 16.6919 46.9271 17.9281Z" fill="#E2E2FF"/>
</g>
<g id="Group">
<g id="Vector_2" style="mix-blend-mode:color">
<path d="M30.5808 1.06337L18.4394 11.3805L14.0379 15.1305C13.676 15.4388 13.2162 15.6081 12.7408 15.6081H4.676C3.70185 15.6107 2.76831 16.0028 2.07948 16.6987C1.39064 17.3946 1.00253 18.3377 1 19.3219L1 36.669C0.999997 37.6548 1.38698 38.6004 2.07609 39.2984C2.7652 39.9964 3.70019 40.3898 4.676 40.3924H12.7447C13.2177 40.3924 13.6755 40.5601 14.0366 40.8656L18.4394 44.591L30.5808 54.9275C31.2384 55.4878 32.0409 55.8464 32.8936 55.9611C33.7462 56.0758 34.6136 55.9418 35.3934 55.5749C36.1732 55.208 36.8329 54.6235 37.2948 53.8903C37.7566 53.1571 38.0013 52.3058 38 51.4367V4.55412C37.9974 3.68675 37.7503 2.83807 37.2878 2.10736C36.8252 1.37665 36.1662 0.794128 35.3879 0.427942C34.6096 0.0617562 33.7442 -0.0729518 32.8929 0.0395772C32.0416 0.152106 31.2396 0.507219 30.5808 1.06337Z" fill="url(#paint0_linear_884_42111)" fill-opacity="0.4"/>
</g>
<g id="Union_2" style="mix-blend-mode:color">
<path d="M46.9271 17.9281C45.691 19.1644 45.691 21.1687 46.9271 22.405L51.1089 26.5868C51.89 27.3678 51.89 28.6342 51.1089 29.4152L46.9271 33.597C45.691 34.8332 45.691 36.8375 46.9271 38.0738C48.1633 39.31 50.1677 39.31 51.404 38.0738L55.5858 33.892C56.3669 33.1109 57.6332 33.1109 58.4142 33.892L62.596 38.0738C63.8322 39.31 65.8366 39.31 67.0727 38.0738C68.3091 36.8375 68.3091 34.8332 67.0727 33.597L62.8909 29.4152C62.1099 28.6341 62.1099 27.3678 62.8909 26.5867L67.0727 22.405C68.3091 21.1687 68.3091 19.1644 67.0727 17.9281C65.8366 16.6919 63.8322 16.6919 62.596 17.9281L58.4142 22.1099C57.6332 22.891 56.3669 22.891 55.5858 22.1099L51.404 17.9281C50.1677 16.6919 48.1635 16.6919 46.9271 17.9281Z" fill="url(#paint1_linear_884_42111)" fill-opacity="0.4"/>
</g>
</g>
</g>
</g>
<defs>
<filter id="filter0_di_884_42111" x="0" y="0.000976562" width="39" height="59" filterUnits="userSpaceOnUse" color-interpolation-filters="sRGB">
<feFlood flood-opacity="0" result="BackgroundImageFix"/>
<feColorMatrix in="SourceAlpha" type="matrix" values="0 0 0 0 0 0 0 0 0 0 0 0 0 0 0 0 0 0 127 0" result="hardAlpha"/>
<feOffset dy="2"/>
<feGaussianBlur stdDeviation="0.5"/>
<feComposite in2="hardAlpha" operator="out"/>
<feColorMatrix type="matrix" values="0 0 0 0 0 0 0 0 0 0 0 0 0 0 0 0 0 0 0.2 0"/>
<feBlend mode="normal" in2="BackgroundImageFix" result="effect1_dropShadow_884_42111"/>
<feBlend mode="normal" in="SourceGraphic" in2="effect1_dropShadow_884_42111" result="shape"/>
<feColorMatrix in="SourceAlpha" type="matrix" values="0 0 0 0 0 0 0 0 0 0 0 0 0 0 0 0 0 0 127 0" result="hardAlpha"/>
<feOffset dy="-1.5"/>
<feComposite in2="hardAlpha" operator="arithmetic" k2="-1" k3="1"/>
<feColorMatrix type="matrix" values="0 0 0 0 0.207843 0 0 0 0 0.121569 0 0 0 0 0.282353 0 0 0 0.5 0"/>
<feBlend mode="normal" in2="shape" result="effect2_innerShadow_884_42111"/>
</filter>
<filter id="filter1_di_884_42111" x="45" y="17.001" width="24" height="25" filterUnits="userSpaceOnUse" color-interpolation-filters="sRGB">
<feFlood flood-opacity="0" result="BackgroundImageFix"/>
<feColorMatrix in="SourceAlpha" type="matrix" values="0 0 0 0 0 0 0 0 0 0 0 0 0 0 0 0 0 0 127 0" result="hardAlpha"/>
<feOffset dy="2"/>
<feGaussianBlur stdDeviation="0.5"/>
<feComposite in2="hardAlpha" operator="out"/>
<feColorMatrix type="matrix" values="0 0 0 0 0 0 0 0 0 0 0 0 0 0 0 0 0 0 0.2 0"/>
<feBlend mode="normal" in2="BackgroundImageFix" result="effect1_dropShadow_884_42111"/>
<feBlend mode="normal" in="SourceGraphic" in2="effect1_dropShadow_884_42111" result="shape"/>
<feColorMatrix in="SourceAlpha" type="matrix" values="0 0 0 0 0 0 0 0 0 0 0 0 0 0 0 0 0 0 127 0" result="hardAlpha"/>
<feOffset dy="-1.5"/>
<feComposite in2="hardAlpha" operator="arithmetic" k2="-1" k3="1"/>
<feColorMatrix type="matrix" values="0 0 0 0 0.207843 0 0 0 0 0.121569 0 0 0 0 0.282353 0 0 0 0.5 0"/>
<feBlend mode="normal" in2="shape" result="effect2_innerShadow_884_42111"/>
</filter>
<linearGradient id="paint0_linear_884_42111" x1="19.5" y1="0.000976562" x2="19.5" y2="56.001" gradientUnits="userSpaceOnUse">
<stop stop-color="#8677E2"/>
<stop offset="1" stop-color="#F3AEEC"/>
</linearGradient>
<linearGradient id="paint1_linear_884_42111" x1="57" y1="17.001" x2="57" y2="39.001" gradientUnits="userSpaceOnUse">
<stop stop-color="#8677E2"/>
<stop offset="1" stop-color="#F3AEEC"/>
</linearGradient>
</defs>
</svg>
