<svg width="190" height="82" viewBox="0 0 190 82" fill="none" xmlns="http://www.w3.org/2000/svg">
<g id="Buttons/Rect/PlayIcon/Hover">
<g id="Buttons/Rect/PlayIcon/Hover_2">
<g id="Button/Rect/Hover">
<g id="Group 8">
<g id="Group">
<g id="Rectangle" filter="url(#filter0_diii_884_42119)">
<rect x="1" width="188" height="79.9999" rx="2" fill="#8D8EA3"/>
</g>
<rect id="Rectangle_2" style="mix-blend-mode:color" opacity="0.5" x="1" width="188" height="79.9999" rx="2" fill="#B2BCF6"/>
<g id="Rectangle_3" style="mix-blend-mode:lighten" opacity="0.5">
<rect x="1" width="188" height="79.9999" rx="2" fill="#B2BCF6" style="mix-blend-mode:color"/>
</g>
<g id="MaskGroup">
<mask id="mask0_884_42119" style="mask-type:alpha" maskUnits="userSpaceOnUse" x="1" y="0" width="188" height="80">
<rect id="Rectangle_4" x="1" y="0.0504761" width="188" height="79.8999" rx="2" fill="#8D8EA3"/>
</mask>
<g mask="url(#mask0_884_42119)">
<g id="Vector" style="mix-blend-mode:multiply" opacity="0.05">
<path d="M-8.91113 72.7186L-6.3398 -30.1777C-6.30536 -31.5561 -4.9192 -32.487 -3.63021 -31.9974L13.7966 -25.3775C14.4279 -25.1377 14.8956 -24.5954 15.04 -23.9357L21.416 5.18142C21.5032 5.5798 21.4666 5.99533 21.311 6.3723L8.87453 36.5029C8.79186 36.7031 8.74229 36.9155 8.72775 37.1317L6.77344 66.1863C6.72859 66.853 6.35373 67.4533 5.77432 67.7862L-5.91537 74.5027C-7.26802 75.2799 -8.9501 74.2782 -8.91113 72.7186Z" fill="url(#paint0_linear_884_42119)" style="mix-blend-mode:color-burn"/>
</g>
<g id="Vector_2" style="mix-blend-mode:multiply" opacity="0.05">
<path d="M46.8785 43.6991L52.6039 -10.912L54.7047 -33.5081C54.8583 -35.1597 56.84 -35.9173 58.0562 -34.7893L75.1061 -18.9755C75.498 -18.6119 75.7281 -18.1066 75.745 -17.5723L77.6999 44.2076L81.9702 87.5382C82.0358 88.2035 81.7646 88.8575 81.2475 89.2813L71.7642 97.0527C70.7301 97.9001 69.1718 97.5139 68.6531 96.2816L60.8591 77.7636L47.0225 44.6793C46.893 44.3698 46.8435 44.0327 46.8785 43.6991Z" fill="url(#paint1_linear_884_42119)" style="mix-blend-mode:color-burn"/>
</g>
<g id="Vector_3" style="mix-blend-mode:multiply" opacity="0.05">
<path d="M9.44443 24.6592L22.2008 -22.0696C22.3208 -22.5092 22.5874 -22.8947 22.9564 -23.1622L41.4124 -36.5408C42.2125 -37.1208 43.3163 -37.0294 44.0102 -36.3258L56.0037 -24.1644C56.776 -23.3813 56.771 -22.1215 55.9925 -21.3445L38.0997 -3.48479C37.8646 -3.25009 37.6916 -2.96052 37.5965 -2.64223L23.7139 43.7855C23.2115 45.4656 20.9442 45.7318 20.0664 44.2137L9.64246 26.1871C9.37507 25.7246 9.30376 25.1745 9.44443 24.6592Z" fill="url(#paint2_linear_884_42119)" style="mix-blend-mode:color-burn"/>
</g>
<g id="Vector_4" style="mix-blend-mode:multiply" opacity="0.05">
<path d="M135.139 79.9325C139.141 56.9128 146.874 12.1383 146.874 10.9856L145.493 -7.5089C145.461 -7.95034 145.575 -8.39024 145.819 -8.75967L161.289 -32.1936C162.249 -33.6477 164.48 -33.2643 164.899 -31.5731L184.106 45.8842C184.259 46.5034 184.108 47.1587 183.699 47.6481L161.237 74.5229C161.15 74.6269 161.074 74.7394 161.01 74.8588L149.501 96.2752C148.797 97.5847 146.961 97.696 146.105 96.4811L135.478 81.4126C135.172 80.9786 135.049 80.4557 135.139 79.9325Z" fill="url(#paint3_linear_884_42119)" style="mix-blend-mode:color-burn"/>
</g>
<g id="Vector_5" style="mix-blend-mode:multiply" opacity="0.05">
<path d="M94.0355 42.8653L107.232 1.45592C107.293 1.26617 107.381 1.08653 107.495 0.922916L120.425 -17.7088C121.685 -19.5244 124.525 -18.2565 124.014 -16.1064L110.598 40.3769L103.075 80.8726C103.003 81.2602 102.818 81.6178 102.544 81.9006L93.4649 91.2489C92.1561 92.5966 89.8794 91.5596 90.0373 89.6875L93.9482 43.3046C93.9608 43.1554 93.9901 43.008 94.0355 42.8653Z" fill="url(#paint4_linear_884_42119)" style="mix-blend-mode:color-burn"/>
</g>
<g id="Vector_6" style="mix-blend-mode:multiply" opacity="0.05">
<path d="M126.819 35.832L132.808 -27.1059C132.921 -28.2904 134.037 -29.1151 135.202 -28.8755L153.047 -25.2065C153.912 -25.0286 154.558 -24.304 154.636 -23.424L158.425 19.3272C158.441 19.514 158.431 19.7022 158.396 19.8863L151.493 55.3063C151.195 56.8381 149.335 57.4531 148.182 56.4013L127.462 37.499C126.998 37.0753 126.76 36.4579 126.819 35.832Z" fill="url(#paint5_linear_884_42119)" style="mix-blend-mode:color-burn"/>
</g>
<g id="Vector_7" style="mix-blend-mode:multiply" opacity="0.05">
<path d="M15.1121 108.487L16.0965 -49.6724C16.103 -50.7172 16.9128 -51.581 17.955 -51.6549L48.663 -53.8326C49.8983 -53.9202 50.9155 -52.8756 50.795 -51.6431L42.0782 37.5238C42.0573 37.7374 42.071 37.9529 42.1186 38.1621L58.0187 108.056C58.3034 109.308 57.3521 110.5 56.0685 110.5H17.1121C16.0027 110.5 15.1052 109.597 15.1121 108.487Z" fill="url(#paint6_linear_884_42119)" style="mix-blend-mode:color-burn"/>
</g>
<g id="Vector_8" style="mix-blend-mode:multiply" opacity="0.05">
<path d="M203.067 -40.8545L200.581 110.212C200.564 111.258 199.743 112.114 198.699 112.175L169.601 113.886C168.369 113.959 167.366 112.909 167.494 111.681L175.863 31.7779C175.885 31.5686 175.874 31.357 175.83 31.1512L160.164 -42.0771C159.891 -43.3551 160.897 -44.5477 162.203 -44.4937L201.15 -42.8857C202.235 -42.8409 203.085 -41.9396 203.067 -40.8545Z" fill="url(#paint7_linear_884_42119)" style="mix-blend-mode:color-burn"/>
</g>
<g id="Vector_9" style="mix-blend-mode:multiply" opacity="0.05">
<path d="M56.159 26.4855L54.459 -35.7069C54.397 -37.974 57.5599 -38.5776 58.3371 -36.4468L58.5 -36.0003L72.2807 24.5262L82.7285 110.759C82.8728 111.95 81.943 113 80.743 113H36.5791C35.2725 113 34.3168 111.767 34.6421 110.502L56.0967 27.0381C56.1431 26.8577 56.1641 26.6717 56.159 26.4855Z" fill="url(#paint8_linear_884_42119)" style="mix-blend-mode:color-burn"/>
</g>
<g id="Vector_10" style="mix-blend-mode:multiply" opacity="0.05">
<path d="M172.81 30.8865L170.672 108.649C170.644 109.67 171.39 110.548 172.402 110.686L185.73 112.5C186.909 112.66 187.967 111.762 187.999 110.573L190.134 32.8054L201.538 -44.7087C201.716 -45.9161 200.78 -46.9998 199.559 -46.9998H151.706C150.361 -46.9998 149.4 -45.6985 149.795 -44.4126L172.723 30.2444C172.787 30.4522 172.816 30.6691 172.81 30.8865Z" fill="url(#paint9_linear_884_42119)" style="mix-blend-mode:color-burn"/>
</g>
<g id="Vector_11" style="mix-blend-mode:multiply" opacity="0.05">
<path d="M86.5663 41.1502L78.6935 -30.3086C78.6063 -31.1006 78.9975 -31.8688 79.6893 -32.2641L102.535 -45.317C103.042 -45.6067 103.65 -45.6603 104.199 -45.464L130.539 -36.0575C131.646 -35.6623 132.175 -34.4024 131.682 -33.3354L116.845 -1.21064C116.693 -0.881519 116.632 -0.529446 116.671 -0.169022C119.143 22.6707 123.972 67.5856 123.972 68.7452C123.972 69.7904 112.968 85.3546 105.721 95.4388C104.75 96.7903 102.654 96.4236 102.188 94.8259L86.6342 41.4912C86.6017 41.3797 86.579 41.2656 86.5663 41.1502Z" fill="url(#paint10_linear_884_42119)" style="mix-blend-mode:color-burn"/>
</g>
<g id="Vector_12" style="mix-blend-mode:multiply" opacity="0.05">
<path d="M14.3724 71.0141L30.6848 -46.7255C30.8514 -47.9277 29.9175 -49 28.7038 -49L-14 -49C-15.1046 -49 -16 -48.1046 -16 -47V110.909C-16 112.009 -15.1129 112.902 -14.0138 112.909L18.5832 113.134C19.8177 113.142 20.765 112.041 20.5724 110.822L14.378 71.6006C14.3473 71.4064 14.3454 71.2088 14.3724 71.0141Z" fill="url(#paint11_linear_884_42119)" style="mix-blend-mode:color-burn"/>
</g>
<g id="Vector_13" style="mix-blend-mode:multiply" opacity="0.05">
<path d="M110.726 34.6672L77.5454 -9.57497C76.8286 -10.5308 77.1042 -11.8977 78.1354 -12.5011L105.872 -28.7316C106.497 -29.0976 107.271 -29.0967 107.896 -28.7293L150.301 -3.78427C151.443 -3.1126 151.628 -1.53652 150.673 -0.618513L113.712 34.9091C112.846 35.7416 111.447 35.6282 110.726 34.6672Z" fill="url(#paint12_linear_884_42119)" style="mix-blend-mode:color-burn"/>
</g>
</g>
</g>
<g id="Rectangle_5" filter="url(#filter1_di_884_42119)">
<rect x="10" y="8.99976" width="170" height="61.9999" rx="1" fill="#242B39"/>
</g>
<g id="Rectangle_6" style="mix-blend-mode:color">
<rect x="10" y="8.99976" width="170" height="61.9999" rx="2" fill="#E2C6F8" fill-opacity="0.2"/>
</g>
</g>
<g id="Rectangle_7" style="mix-blend-mode:screen" opacity="0.5">
<rect x="13.5" y="12.5011" width="163" height="54.9999" stroke="#FEDD9D"/>
</g>
<g id="Rectangle_8" style="mix-blend-mode:screen" opacity="0.5" filter="url(#filter2_f_884_42119)">
<rect x="14" y="13.0011" width="162" height="53.9999" stroke="#FCFF5E" stroke-opacity="0.5" stroke-width="2"/>
</g>
<g id="Rectangle_9" style="mix-blend-mode:color-burn" opacity="0.5">
<rect x="10" y="9.00024" width="170" height="61.9999" rx="2" fill="url(#paint13_radial_884_42119)"/>
</g>
<g id="Group_2">
<g id="Vector_14" style="mix-blend-mode:multiply" opacity="0.5">
<path d="M7.66663 16.0005L0.999997 20.0005L1 2.00049C1 0.895919 1.89543 0.000488438 3 0.000488631L20.9999 0.000491778L16.9999 6.66715L11.6666 6.66715L14.3333 13.3338L7.66664 10.6671L7.66663 16.0005Z" fill="#73799F"/>
</g>
<path id="Intersect" fill-rule="evenodd" clip-rule="evenodd" d="M1.00011 17.8682L1.00011 2.00152C1.00011 0.896948 1.89554 0.00151868 3.00011 0.00151877L18.8667 0.00152207L15.6667 5.33485L10.3334 5.33485L13.0001 12.0015L6.33342 9.33484L6.33342 14.6682L1.00011 17.8682Z" fill="#A5ABDE"/>
<path id="Vector_15" opacity="0.5" d="M11.2 0.000488281C7.79997 1.13382 2.13333 7.93381 1 10.2005V2.00049C1 0.895919 1.89417 0.000488281 2.99874 0.000488281H11.2Z" fill="#C0C4E8"/>
</g>
<g id="Group_3">
<g id="Vector_16" style="mix-blend-mode:multiply" opacity="0.5">
<path d="M182.333 64.0005L189 60.0005L189 78.0005C189 79.105 188.105 80.0005 187 80.0005L169 80.0005L173 73.3338L178.333 73.3338L175.667 66.6671L182.333 69.3338L182.333 64.0005Z" fill="#73799F"/>
</g>
<path id="Intersect_2" fill-rule="evenodd" clip-rule="evenodd" d="M189 62.1328L189 77.9994C189 79.104 188.104 79.9994 187 79.9994L171.133 79.9994L174.333 74.6661L179.667 74.6661L177 67.9994L183.667 70.6661L183.667 65.3328L189 62.1328Z" fill="#A5ABDE"/>
<path id="Vector_17" opacity="0.5" d="M178.8 80.0005C182.2 78.8671 187.867 72.0671 189 69.8005L189 78.0005C189 79.105 188.106 80.0005 187.001 80.0005L178.8 80.0005Z" fill="#C0C4E8"/>
</g>
<g id="Group_4">
<g id="Vector_18" style="mix-blend-mode:multiply" opacity="0.5">
<path d="M173 6.66721L169 0.000576576L187 0.000579508C188.105 0.000579688 189 0.896008 189 2.00058L189 20.0005L182.333 16.0005L182.333 10.6672L175.667 13.3339L178.333 6.66722L173 6.66721Z" fill="#73799F"/>
</g>
<path id="Intersect_3" fill-rule="evenodd" clip-rule="evenodd" d="M171.132 0.000536077L186.999 0.000539183C188.104 0.000539266 188.999 0.895967 188.999 2.00054L188.999 17.8671L183.666 14.6671L183.666 9.33383L176.999 12.0005L179.666 5.33385L174.332 5.33385L171.132 0.000536077Z" fill="#A5ABDE"/>
<path id="Vector_19" opacity="0.5" d="M189 10.2004C187.867 6.80046 181.067 1.13382 178.8 0.000488403L187 0.000488305C188.105 0.000488292 189 0.89466 189 1.99923L189 10.2004Z" fill="#C0C4E8"/>
</g>
<g id="Group_5">
<g id="Vector_20" style="mix-blend-mode:multiply" opacity="0.5">
<path d="M17 73.3337L21 80.0004L3 80.0004C1.89543 80.0004 1 79.1049 1 78.0004L1 60.0005L7.66666 64.0004L7.66666 69.3337L14.3333 66.6671L11.6667 73.3337L17 73.3337Z" fill="#73799F"/>
</g>
<path id="Intersect_4" fill-rule="evenodd" clip-rule="evenodd" d="M18.8677 80.0004L3.00103 80.0004C1.89646 80.0004 1.00103 79.105 1.00103 78.0004L1.00103 62.1338L6.33436 65.3338L6.33436 70.6671L13.001 68.0005L10.3344 74.6671L15.6677 74.6671L18.8677 80.0004Z" fill="#A5ABDE"/>
<path id="Vector_21" opacity="0.5" d="M1 69.8005C2.13333 73.2005 8.93332 78.8671 11.2 80.0005L3 80.0005C1.89543 80.0005 1 79.1063 1 78.0017L1 69.8005Z" fill="#C0C4E8"/>
</g>
<g id="Rectangle_10" style="mix-blend-mode:soft-light">
<rect x="1" y="0.000488281" width="188" height="79.9999" rx="2" fill="url(#paint14_linear_884_42119)" fill-opacity="0.3"/>
</g>
<g id="Rectangle_11" style="mix-blend-mode:soft-light">
<rect x="1" width="188" height="79.9999" rx="2" fill="url(#paint15_radial_884_42119)" fill-opacity="0.3"/>
</g>
</g>
</g>
<g id="Button/Icon/Play">
<g id="Play" filter="url(#filter3_di_884_42119)">
<path d="M108.44 36.0409C111.427 37.8095 111.427 42.1905 108.44 43.9591L85.7914 57.3687C82.7809 59.1512 79.0002 56.9471 79.0002 53.4096L79.0002 26.5904C79.0002 23.0529 82.7809 20.8488 85.7914 22.6313L108.44 36.0409Z" fill="#E2E2FF"/>
</g>
<g id="Play_2" style="mix-blend-mode:color">
<path d="M108.44 36.0409C111.427 37.8095 111.427 42.1904 108.44 43.9591L85.7914 57.3687C82.7809 59.1512 79.0002 56.9471 79.0002 53.4096L79.0002 26.5904C79.0002 23.0529 82.7809 20.8488 85.7914 22.6313L108.44 36.0409Z" fill="url(#paint16_linear_884_42119)" fill-opacity="0.4"/>
</g>
</g>
</g>
</g>
<defs>
<filter id="filter0_diii_884_42119" x="0" y="0" width="190" height="81.9999" filterUnits="userSpaceOnUse" color-interpolation-filters="sRGB">
<feFlood flood-opacity="0" result="BackgroundImageFix"/>
<feColorMatrix in="SourceAlpha" type="matrix" values="0 0 0 0 0 0 0 0 0 0 0 0 0 0 0 0 0 0 127 0" result="hardAlpha"/>
<feMorphology radius="1" operator="dilate" in="SourceAlpha" result="effect1_dropShadow_884_42119"/>
<feOffset dy="1"/>
<feComposite in2="hardAlpha" operator="out"/>
<feColorMatrix type="matrix" values="0 0 0 0 0 0 0 0 0 0 0 0 0 0 0 0 0 0 0.25 0"/>
<feBlend mode="normal" in2="BackgroundImageFix" result="effect1_dropShadow_884_42119"/>
<feBlend mode="normal" in="SourceGraphic" in2="effect1_dropShadow_884_42119" result="shape"/>
<feColorMatrix in="SourceAlpha" type="matrix" values="0 0 0 0 0 0 0 0 0 0 0 0 0 0 0 0 0 0 127 0" result="hardAlpha"/>
<feOffset dy="-2"/>
<feComposite in2="hardAlpha" operator="arithmetic" k2="-1" k3="1"/>
<feColorMatrix type="matrix" values="0 0 0 0 0 0 0 0 0 0 0 0 0 0 0 0 0 0 0.1 0"/>
<feBlend mode="normal" in2="shape" result="effect2_innerShadow_884_42119"/>
<feColorMatrix in="SourceAlpha" type="matrix" values="0 0 0 0 0 0 0 0 0 0 0 0 0 0 0 0 0 0 127 0" result="hardAlpha"/>
<feOffset dy="2"/>
<feComposite in2="hardAlpha" operator="arithmetic" k2="-1" k3="1"/>
<feColorMatrix type="matrix" values="0 0 0 0 0.33382 0 0 0 0 0 0 0 0 0 0 0 0 0 0.1 0"/>
<feBlend mode="normal" in2="effect2_innerShadow_884_42119" result="effect3_innerShadow_884_42119"/>
<feColorMatrix in="SourceAlpha" type="matrix" values="0 0 0 0 0 0 0 0 0 0 0 0 0 0 0 0 0 0 127 0" result="hardAlpha"/>
<feMorphology radius="2" operator="erode" in="SourceAlpha" result="effect4_innerShadow_884_42119"/>
<feOffset/>
<feComposite in2="hardAlpha" operator="arithmetic" k2="-1" k3="1"/>
<feColorMatrix type="matrix" values="0 0 0 0 0 0 0 0 0 0 0 0 0 0 0 0 0 0 0.05 0"/>
<feBlend mode="normal" in2="effect3_innerShadow_884_42119" result="effect4_innerShadow_884_42119"/>
</filter>
<filter id="filter1_di_884_42119" x="7" y="5.99976" width="176" height="67.9999" filterUnits="userSpaceOnUse" color-interpolation-filters="sRGB">
<feFlood flood-opacity="0" result="BackgroundImageFix"/>
<feColorMatrix in="SourceAlpha" type="matrix" values="0 0 0 0 0 0 0 0 0 0 0 0 0 0 0 0 0 0 127 0" result="hardAlpha"/>
<feMorphology radius="1" operator="dilate" in="SourceAlpha" result="effect1_dropShadow_884_42119"/>
<feOffset/>
<feGaussianBlur stdDeviation="1"/>
<feComposite in2="hardAlpha" operator="out"/>
<feColorMatrix type="matrix" values="0 0 0 0 0 0 0 0 0 0 0 0 0 0 0 0 0 0 0.1 0"/>
<feBlend mode="normal" in2="BackgroundImageFix" result="effect1_dropShadow_884_42119"/>
<feBlend mode="normal" in="SourceGraphic" in2="effect1_dropShadow_884_42119" result="shape"/>
<feColorMatrix in="SourceAlpha" type="matrix" values="0 0 0 0 0 0 0 0 0 0 0 0 0 0 0 0 0 0 127 0" result="hardAlpha"/>
<feMorphology radius="2" operator="erode" in="SourceAlpha" result="effect2_innerShadow_884_42119"/>
<feOffset/>
<feGaussianBlur stdDeviation="0.25"/>
<feComposite in2="hardAlpha" operator="arithmetic" k2="-1" k3="1"/>
<feColorMatrix type="matrix" values="0 0 0 0 0.2925 0 0 0 0 0 0 0 0 0 0 0 0 0 0.1 0"/>
<feBlend mode="normal" in2="shape" result="effect2_innerShadow_884_42119"/>
</filter>
<filter id="filter2_f_884_42119" x="9" y="8.00107" width="172" height="63.9999" filterUnits="userSpaceOnUse" color-interpolation-filters="sRGB">
<feFlood flood-opacity="0" result="BackgroundImageFix"/>
<feBlend mode="normal" in="SourceGraphic" in2="BackgroundImageFix" result="shape"/>
<feGaussianBlur stdDeviation="2" result="effect1_foregroundBlur_884_42119"/>
</filter>
<filter id="filter3_di_884_42119" x="78.1" y="22" width="33.4802" height="38.7" filterUnits="userSpaceOnUse" color-interpolation-filters="sRGB">
<feFlood flood-opacity="0" result="BackgroundImageFix"/>
<feColorMatrix in="SourceAlpha" type="matrix" values="0 0 0 0 0 0 0 0 0 0 0 0 0 0 0 0 0 0 127 0" result="hardAlpha"/>
<feOffset dy="1.8"/>
<feGaussianBlur stdDeviation="0.45"/>
<feComposite in2="hardAlpha" operator="out"/>
<feColorMatrix type="matrix" values="0 0 0 0 0 0 0 0 0 0 0 0 0 0 0 0 0 0 0.2 0"/>
<feBlend mode="normal" in2="BackgroundImageFix" result="effect1_dropShadow_884_42119"/>
<feBlend mode="normal" in="SourceGraphic" in2="effect1_dropShadow_884_42119" result="shape"/>
<feColorMatrix in="SourceAlpha" type="matrix" values="0 0 0 0 0 0 0 0 0 0 0 0 0 0 0 0 0 0 127 0" result="hardAlpha"/>
<feOffset dy="-1.35"/>
<feComposite in2="hardAlpha" operator="arithmetic" k2="-1" k3="1"/>
<feColorMatrix type="matrix" values="0 0 0 0 0.207843 0 0 0 0 0.121569 0 0 0 0 0.282353 0 0 0 0.5 0"/>
<feBlend mode="normal" in2="shape" result="effect2_innerShadow_884_42119"/>
</filter>
<linearGradient id="paint0_linear_884_42119" x1="21.1613" y1="3.58286" x2="-9.23684" y2="4.0205" gradientUnits="userSpaceOnUse">
<stop stop-color="#2400FF"/>
<stop offset="1" stop-color="#993859"/>
</linearGradient>
<linearGradient id="paint1_linear_884_42119" x1="81.6267" y1="8.08076" x2="46.5509" y2="8.5479" gradientUnits="userSpaceOnUse">
<stop stop-color="#891244"/>
<stop offset="1" stop-color="#993859"/>
</linearGradient>
<linearGradient id="paint2_linear_884_42119" x1="56.7866" y1="-8.83383" x2="8.88127" y2="-7.44827" gradientUnits="userSpaceOnUse">
<stop stop-color="#891244"/>
<stop offset="1" stop-color="#993859"/>
</linearGradient>
<linearGradient id="paint3_linear_884_42119" x1="183.722" y1="9.23693" x2="134.625" y2="10.1603" gradientUnits="userSpaceOnUse">
<stop stop-color="#FF3D00"/>
<stop offset="1" stop-color="#993859"/>
</linearGradient>
<linearGradient id="paint4_linear_884_42119" x1="118.437" y1="15.3545" x2="101.343" y2="11.4231" gradientUnits="userSpaceOnUse">
<stop stop-color="#F5277D"/>
<stop offset="1" stop-color="#993859"/>
</linearGradient>
<linearGradient id="paint5_linear_884_42119" x1="158.046" y1="0.177905" x2="126.483" y2="0.763042" gradientUnits="userSpaceOnUse">
<stop stop-color="#891244"/>
<stop offset="1" stop-color="#993859"/>
</linearGradient>
<linearGradient id="paint6_linear_884_42119" x1="57.7073" y1="2.29587" x2="14.607" y2="2.86756" gradientUnits="userSpaceOnUse">
<stop stop-color="#891244"/>
<stop offset="1" stop-color="#993859"/>
</linearGradient>
<linearGradient id="paint7_linear_884_42119" x1="160.178" y1="66.8952" x2="203.438" y2="66.3173" gradientUnits="userSpaceOnUse">
<stop stop-color="#891244"/>
<stop offset="1" stop-color="#993859"/>
</linearGradient>
<linearGradient id="paint8_linear_884_42119" x1="82.5807" y1="-4.55668" x2="33.6179" y2="-3.87161" gradientUnits="userSpaceOnUse">
<stop stop-color="#F5277D"/>
<stop offset="1" stop-color="#993859"/>
</linearGradient>
<linearGradient id="paint9_linear_884_42119" x1="201.202" y1="61.9804" x2="148.591" y2="61.1919" gradientUnits="userSpaceOnUse">
<stop stop-color="#F5277D"/>
<stop offset="1" stop-color="#993859"/>
</linearGradient>
<linearGradient id="paint10_linear_884_42119" x1="131.912" y1="2.61023" x2="78.1396" y2="3.64583" gradientUnits="userSpaceOnUse">
<stop stop-color="#891244"/>
<stop offset="1" stop-color="#993859"/>
</linearGradient>
<linearGradient id="paint11_linear_884_42119" x1="30.3292" y1="4.24775" x2="-22.1184" y2="5.09002" gradientUnits="userSpaceOnUse">
<stop stop-color="#891244"/>
<stop offset="1" stop-color="#993859"/>
</linearGradient>
<linearGradient id="paint12_linear_884_42119" x1="151.603" y1="-7.29598" x2="75.863" y2="-2.76877" gradientUnits="userSpaceOnUse">
<stop stop-color="#891244"/>
<stop offset="1" stop-color="#993859"/>
</linearGradient>
<radialGradient id="paint13_radial_884_42119" cx="0" cy="0" r="1" gradientUnits="userSpaceOnUse" gradientTransform="translate(94.9999 40.0002) rotate(90) scale(46.0607 103.008)">
<stop stop-color="white"/>
<stop offset="1" stop-color="white" stop-opacity="0"/>
</radialGradient>
<linearGradient id="paint14_linear_884_42119" x1="94.9999" y1="0.000488281" x2="94.9999" y2="80.0004" gradientUnits="userSpaceOnUse">
<stop stop-color="#8677E2"/>
<stop offset="1" stop-color="#F3AEEC" stop-opacity="0.7"/>
</linearGradient>
<radialGradient id="paint15_radial_884_42119" cx="0" cy="0" r="1" gradientUnits="userSpaceOnUse" gradientTransform="translate(94.9999 40) rotate(90) scale(59.5 139.825)">
<stop stop-color="#6349FF"/>
<stop offset="1" stop-color="#FF5BEF" stop-opacity="0.7"/>
</radialGradient>
<linearGradient id="paint16_linear_884_42119" x1="85.653" y1="22" x2="85.653" y2="58" gradientUnits="userSpaceOnUse">
<stop stop-color="#8677E2"/>
<stop offset="1" stop-color="#F3AEEC"/>
</linearGradient>
</defs>
</svg>
