<svg width="80" height="80" viewBox="0 0 80 80" fill="none" xmlns="http://www.w3.org/2000/svg">
<g id="Buttons/Square/Home/Default">
<g id="Buttons/Square/Home/Default_2">
<g id="Button/Square/Default">
<g id="Group">
<g id="Group_2">
<g id="Rectangle" filter="url(#filter0_iii_884_42086)">
<rect width="80" height="80" rx="2" fill="#8D8EA3"/>
</g>
<rect id="Rectangle_2" style="mix-blend-mode:color" opacity="0.5" width="80" height="80" rx="2" fill="#B2BCF6"/>
<g id="MaskGroup">
<mask id="mask0_884_42086" style="mask-type:alpha" maskUnits="userSpaceOnUse" x="0" y="0" width="80" height="80">
<rect id="Rectangle_3" width="80" height="80" rx="2" fill="#8D8EA3"/>
</mask>
<g mask="url(#mask0_884_42086)">
<g id="Vector" style="mix-blend-mode:multiply" opacity="0.05">
<path d="M26.1395 79.9323C30.1409 56.9127 37.8743 12.1381 37.8743 10.9854L36.4935 -7.50912C36.4605 -7.95056 36.575 -8.39046 36.8188 -8.75989L52.2889 -32.1938C53.2488 -33.648 55.4798 -33.2645 55.8992 -31.5733L75.1057 45.884C75.2593 46.5032 75.1082 47.1585 74.6991 47.648L52.2373 74.5228C52.1504 74.6268 52.0743 74.7393 52.0102 74.8586L40.5007 96.2751C39.797 97.5846 37.9613 97.6959 37.1045 96.481L26.4781 81.4125C26.172 80.9785 26.0485 80.4556 26.1395 79.9323Z" fill="url(#paint0_linear_884_42086)" style="mix-blend-mode:color-burn"/>
</g>
<g id="Vector_2" style="mix-blend-mode:multiply" opacity="0.05">
<path d="M-14.9645 42.8653L-1.76755 1.45586C-1.70708 1.26611 -1.61861 1.08646 -1.50506 0.922856L11.4254 -17.7089C12.6854 -19.5245 15.525 -18.2566 15.0143 -16.1064L1.59829 40.3768L-5.92488 80.8726C-5.99689 81.2602 -6.18183 81.6178 -6.45648 81.9007L-15.5351 91.249C-16.8439 92.5967 -19.1206 91.5596 -18.9628 89.6876L-15.0518 43.3046C-15.0393 43.1553 -15.01 43.008 -14.9645 42.8653Z" fill="url(#paint1_linear_884_42086)" style="mix-blend-mode:color-burn"/>
</g>
<g id="Vector_3" style="mix-blend-mode:multiply" opacity="0.05">
<path d="M17.8192 35.8321L23.8082 -27.1059C23.9209 -28.2904 25.0365 -29.1151 26.202 -28.8754L44.0469 -25.2064C44.9123 -25.0285 45.5584 -24.3039 45.6364 -23.4239L49.4247 19.3273C49.4412 19.5141 49.4314 19.7024 49.3955 19.8864L42.4931 55.3065C42.1946 56.8382 40.335 57.4532 39.1821 56.4014L18.4623 37.4991C17.9978 37.0754 17.7596 36.458 17.8192 35.8321Z" fill="url(#paint2_linear_884_42086)" style="mix-blend-mode:color-burn"/>
</g>
<g id="Vector_4" style="mix-blend-mode:multiply" opacity="0.05">
<path d="M94.0675 -40.8539L91.5809 110.212C91.5636 111.259 90.743 112.115 89.6985 112.176L60.6008 113.887C59.3688 113.96 58.3657 112.91 58.4943 111.682L66.8633 31.7786C66.8853 31.5692 66.874 31.3577 66.83 31.1518L51.1644 -42.0765C50.891 -43.3545 51.8968 -44.5471 53.2026 -44.4932L92.1503 -42.8851C93.2346 -42.8403 94.0854 -41.939 94.0675 -40.8539Z" fill="url(#paint3_linear_884_42086)" style="mix-blend-mode:color-burn"/>
</g>
<g id="Vector_5" style="mix-blend-mode:multiply" opacity="0.05">
<path d="M63.8101 30.8871L61.6723 108.65C61.6443 109.67 62.3899 110.549 63.4019 110.686L76.7305 112.5C77.9094 112.661 78.9668 111.763 78.9994 110.573L81.1344 32.806L92.5379 -44.7081C92.7156 -45.9156 91.7797 -46.9992 90.5592 -46.9992H42.7064C41.3613 -46.9992 40.3996 -45.698 40.7945 -44.4121L63.7227 30.245C63.7865 30.4529 63.816 30.6697 63.8101 30.8871Z" fill="url(#paint4_linear_884_42086)" style="mix-blend-mode:color-burn"/>
</g>
<g id="Vector_6" style="mix-blend-mode:multiply" opacity="0.05">
<path d="M-22.4337 41.1502L-30.3065 -30.3086C-30.3937 -31.1007 -30.0025 -31.8689 -29.3107 -32.2642L-6.46532 -45.3171C-5.95843 -45.6068 -5.35029 -45.6604 -4.8005 -45.4641L21.5394 -36.0576C22.6462 -35.6623 23.1752 -34.4025 22.6824 -33.3355L7.84549 -1.21069C7.69348 -0.881569 7.63247 -0.529491 7.67147 -0.169067C10.143 22.6707 14.9721 67.5856 14.9721 68.7452C14.9721 69.7905 3.96773 85.3547 -3.27911 95.4388C-4.25034 96.7903 -6.34561 96.4236 -6.81156 94.8259L-22.3657 41.4912C-22.3982 41.3797 -22.421 41.2656 -22.4337 41.1502Z" fill="url(#paint5_linear_884_42086)" style="mix-blend-mode:color-burn"/>
</g>
<g id="Vector_7" style="mix-blend-mode:multiply" opacity="0.05">
<path d="M1.72591 34.6674L-31.4546 -9.57489C-32.1714 -10.5307 -31.8958 -11.8976 -30.8646 -12.501L-3.12843 -28.7316C-2.5031 -29.0975 -1.72875 -29.0966 -1.10426 -28.7293L41.3013 -3.78418C42.4432 -3.11251 42.6283 -1.53643 41.6733 -0.618423L4.71191 34.9093C3.84589 35.7417 2.44663 35.6283 1.72591 34.6674Z" fill="url(#paint6_linear_884_42086)" style="mix-blend-mode:color-burn"/>
</g>
</g>
</g>
<g id="Rectangle_4" filter="url(#filter1_di_884_42086)">
<rect x="9" y="9" width="62" height="62" rx="1" fill="#242B39"/>
</g>
<g id="Rectangle_5" style="mix-blend-mode:color">
<rect x="9" y="9" width="62" height="62" rx="2" fill="#E2C6F8" fill-opacity="0.2"/>
</g>
</g>
<g id="Rectangle_6" style="mix-blend-mode:screen" opacity="0.5">
<rect x="12.3" y="12.3" width="55.4" height="55.4" stroke="#3737AF" stroke-width="0.6"/>
</g>
<g id="Rectangle_7" style="mix-blend-mode:screen" opacity="0.5" filter="url(#filter2_f_884_42086)">
<rect x="12.3" y="12.3" width="55.4" height="55.4" stroke="#FCFF5E" stroke-opacity="0.5" stroke-width="0.6"/>
</g>
<g id="Group_3">
<g id="Vector_8" style="mix-blend-mode:multiply" opacity="0.5">
<path d="M6.66664 16L-3.49691e-06 20L-3.49691e-07 2C-1.56562e-07 0.895431 0.89543 1.56562e-07 2 3.49691e-07L19.9999 3.4969e-06L15.9999 6.66667L10.6666 6.66667L13.3333 13.3333L6.66664 10.6667L6.66664 16Z" fill="#73799F"/>
</g>
<path id="Intersect" fill-rule="evenodd" clip-rule="evenodd" d="M9.0864e-05 17.8677L9.41584e-05 2.00104C9.4255e-05 0.896471 0.895524 0.00104191 2.00009 0.00104201L17.8667 0.00104531L14.6667 5.33438L9.33339 5.33438L12.0001 12.001L5.33341 9.33438L5.33341 14.6677L9.0864e-05 17.8677Z" fill="#A5ABDE"/>
<path id="Vector_9" opacity="0.5" d="M10.2 0C6.79998 1.13333 1.13333 7.93333 0 10.2V2C0 0.895431 0.894172 0 1.99874 0H10.2Z" fill="#C0C4E8"/>
</g>
<g id="Group_4">
<g id="Vector_10" style="mix-blend-mode:multiply" opacity="0.5">
<path d="M73.3334 64L80 60L80 78C80 79.1046 79.1046 80 78 80L60.0001 80L64.0001 73.3333L69.3334 73.3333L66.6667 66.6667L73.3334 69.3333L73.3334 64Z" fill="#73799F"/>
</g>
<path id="Intersect_2" fill-rule="evenodd" clip-rule="evenodd" d="M79.9999 62.1323L79.9999 77.999C79.9999 79.1035 79.1045 79.999 77.9999 79.999L62.1333 79.999L65.3333 74.6656L70.6666 74.6656L67.9999 67.999L74.6666 70.6656L74.6666 65.3323L79.9999 62.1323Z" fill="#A5ABDE"/>
<path id="Vector_11" opacity="0.5" d="M69.8 80C73.2 78.8667 78.8667 72.0667 80 69.8L80 78C80 79.1046 79.1058 80 78.0013 80L69.8 80Z" fill="#C0C4E8"/>
</g>
<g id="Group_5">
<g id="Vector_12" style="mix-blend-mode:multiply" opacity="0.5">
<path d="M64 6.66673L60 8.82943e-05L78 9.12269e-05C79.1046 9.14069e-05 80 0.895522 80 2.00009L80 20L73.3333 16L73.3333 10.6667L66.6667 13.3334L69.3333 6.66673L64 6.66673Z" fill="#73799F"/>
</g>
<path id="Intersect_3" fill-rule="evenodd" clip-rule="evenodd" d="M62.1323 4.50876e-05L77.999 4.81928e-05C79.1036 4.82762e-05 79.999 0.895478 79.999 2.00005L79.999 17.8667L74.6657 14.6667L74.6657 9.33335L67.999 12L70.6657 5.33336L65.3323 5.33336L62.1323 4.50876e-05Z" fill="#A5ABDE"/>
<path id="Vector_13" opacity="0.5" d="M80 10.2C78.8667 6.79998 72.0667 1.13333 69.8 1.21634e-07L78 2.38498e-08C79.1046 1.06779e-08 80 0.894172 80 1.99874L80 10.2Z" fill="#C0C4E8"/>
</g>
<g id="Group_6">
<g id="Vector_14" style="mix-blend-mode:multiply" opacity="0.5">
<path d="M16 73.3333L20 79.9999L2 79.9999C0.895431 79.9999 1.17421e-07 79.1045 2.62268e-07 77.9999L2.62267e-06 60L6.66667 64L6.66667 69.3333L13.3333 66.6666L10.6667 73.3333L16 73.3333Z" fill="#73799F"/>
</g>
<path id="Intersect_4" fill-rule="evenodd" clip-rule="evenodd" d="M17.8677 80L2.00101 80C0.896442 80 0.00101214 79.1045 0.00101219 78L0.00101479 62.1333L5.33435 65.3333L5.33435 70.6667L12.001 68L9.33435 74.6666L14.6677 74.6666L17.8677 80Z" fill="#A5ABDE"/>
<path id="Vector_15" opacity="0.5" d="M-4.45855e-07 69.8C1.13333 73.2 7.93333 78.8667 10.2 80L2 80C0.895431 80 -3.90855e-08 79.1058 -8.73678e-08 78.0013L-4.45855e-07 69.8Z" fill="#C0C4E8"/>
</g>
<g id="Rectangle_8" style="mix-blend-mode:color">
<rect width="80" height="80" rx="2" fill="url(#paint7_linear_884_42086)" fill-opacity="0.3"/>
</g>
</g>
</g>
<g id="Button/Icon/Home">
<g id="HomeIcon" filter="url(#filter3_di_884_42086)">
<path d="M57.3953 38.7449L42.3926 23.5569L41.4585 22.6118C41.2671 22.4179 41.0397 22.264 40.7895 22.159C40.5392 22.054 40.2709 22 40 22C39.7291 22 39.4608 22.054 39.2105 22.159C38.9603 22.264 38.7329 22.4179 38.5415 22.6118L37.6074 23.5569L22.6046 38.7449C22.413 38.9386 22.2609 39.1687 22.1572 39.4219C22.0534 39.6751 22 39.9466 22 40.2207C22 40.4948 22.0534 40.7662 22.1572 41.0195C22.2609 41.2727 22.413 41.5028 22.6046 41.6965L23.5311 42.6416C23.7225 42.8356 23.9499 42.9894 24.2002 43.0944C24.4504 43.1994 24.7187 43.2534 24.9896 43.2534C25.2605 43.2534 25.5288 43.1994 25.7791 43.0944C26.0293 42.9894 26.2567 42.8356 26.4482 42.6416L28.1977 40.8714V56.774C28.1977 56.9352 28.2291 57.0948 28.2901 57.2436C28.3511 57.3925 28.4405 57.5277 28.5532 57.6416C28.6659 57.7555 28.7997 57.8457 28.9469 57.9072C29.0942 57.9687 29.2519 58.0003 29.4112 58H50.3457C50.5049 58.0003 50.6626 57.9687 50.8097 57.9072C50.9568 57.8457 51.0905 57.7554 51.203 57.6415C51.3156 57.5276 51.4048 57.3924 51.4656 57.2435C51.5264 57.0946 51.5576 56.9351 51.5573 56.774V40.6332L53.5423 42.6416C53.9295 43.033 54.4544 43.2528 55.0018 43.2528C55.5491 43.2528 56.074 43.033 56.4613 42.6416L57.3953 41.6965C57.587 41.5028 57.7391 41.2727 57.8428 41.0195C57.9466 40.7662 58 40.4948 58 40.2207C58 39.9466 57.9466 39.6751 57.8428 39.4219C57.7391 39.1687 57.587 38.9386 57.3953 38.7449Z" fill="#E2E2FF"/>
</g>
<g id="HomeIcon_2" style="mix-blend-mode:color">
<path d="M57.3953 38.7449L42.3926 23.5569L41.4585 22.6118C41.2671 22.4179 41.0397 22.264 40.7895 22.159C40.5392 22.054 40.2709 22 40 22C39.7291 22 39.4608 22.054 39.2105 22.159C38.9603 22.264 38.7329 22.4179 38.5415 22.6118L37.6074 23.5569L22.6046 38.7449C22.413 38.9386 22.2609 39.1687 22.1572 39.4219C22.0534 39.6751 22 39.9466 22 40.2207C22 40.4948 22.0534 40.7662 22.1572 41.0195C22.2609 41.2727 22.413 41.5028 22.6046 41.6965L23.5311 42.6416C23.7225 42.8356 23.9499 42.9894 24.2002 43.0944C24.4504 43.1994 24.7187 43.2534 24.9896 43.2534C25.2605 43.2534 25.5288 43.1994 25.7791 43.0944C26.0293 42.9894 26.2567 42.8356 26.4482 42.6416V42.6416C27.0904 41.9917 28.1977 42.4465 28.1977 43.3603V56.774C28.1977 56.9352 28.2291 57.0948 28.2901 57.2436C28.3511 57.3925 28.4405 57.5277 28.5532 57.6416C28.6659 57.7555 28.7997 57.8457 28.9469 57.9072C29.0942 57.9687 29.2519 58.0003 29.4112 58H50.3457C50.5049 58.0003 50.6626 57.9687 50.8097 57.9072C50.9568 57.8457 51.0905 57.7554 51.203 57.6415C51.3156 57.5276 51.4048 57.3924 51.4656 57.2435C51.5264 57.0946 51.5576 56.9351 51.5573 56.774V43.457C51.5573 42.4203 52.8135 41.9043 53.5423 42.6416V42.6416C53.9295 43.033 54.4544 43.2528 55.0018 43.2528C55.5491 43.2528 56.074 43.033 56.4613 42.6416L57.3953 41.6965C57.587 41.5028 57.7391 41.2727 57.8428 41.0195C57.9466 40.7662 58 40.4948 58 40.2207C58 39.9466 57.9466 39.6751 57.8428 39.4219C57.7391 39.1687 57.587 38.9386 57.3953 38.7449Z" fill="url(#paint8_linear_884_42086)" fill-opacity="0.4"/>
</g>
</g>
</g>
</g>
<defs>
<filter id="filter0_iii_884_42086" x="0" y="0" width="80" height="80" filterUnits="userSpaceOnUse" color-interpolation-filters="sRGB">
<feFlood flood-opacity="0" result="BackgroundImageFix"/>
<feBlend mode="normal" in="SourceGraphic" in2="BackgroundImageFix" result="shape"/>
<feColorMatrix in="SourceAlpha" type="matrix" values="0 0 0 0 0 0 0 0 0 0 0 0 0 0 0 0 0 0 127 0" result="hardAlpha"/>
<feOffset dy="-2"/>
<feComposite in2="hardAlpha" operator="arithmetic" k2="-1" k3="1"/>
<feColorMatrix type="matrix" values="0 0 0 0 0 0 0 0 0 0 0 0 0 0 0 0 0 0 0.1 0"/>
<feBlend mode="normal" in2="shape" result="effect1_innerShadow_884_42086"/>
<feColorMatrix in="SourceAlpha" type="matrix" values="0 0 0 0 0 0 0 0 0 0 0 0 0 0 0 0 0 0 127 0" result="hardAlpha"/>
<feOffset dy="2"/>
<feComposite in2="hardAlpha" operator="arithmetic" k2="-1" k3="1"/>
<feColorMatrix type="matrix" values="0 0 0 0 0.33382 0 0 0 0 0 0 0 0 0 0 0 0 0 0.1 0"/>
<feBlend mode="normal" in2="effect1_innerShadow_884_42086" result="effect2_innerShadow_884_42086"/>
<feColorMatrix in="SourceAlpha" type="matrix" values="0 0 0 0 0 0 0 0 0 0 0 0 0 0 0 0 0 0 127 0" result="hardAlpha"/>
<feMorphology radius="2" operator="erode" in="SourceAlpha" result="effect3_innerShadow_884_42086"/>
<feOffset/>
<feComposite in2="hardAlpha" operator="arithmetic" k2="-1" k3="1"/>
<feColorMatrix type="matrix" values="0 0 0 0 0 0 0 0 0 0 0 0 0 0 0 0 0 0 0.05 0"/>
<feBlend mode="normal" in2="effect2_innerShadow_884_42086" result="effect3_innerShadow_884_42086"/>
</filter>
<filter id="filter1_di_884_42086" x="6" y="6" width="68" height="68" filterUnits="userSpaceOnUse" color-interpolation-filters="sRGB">
<feFlood flood-opacity="0" result="BackgroundImageFix"/>
<feColorMatrix in="SourceAlpha" type="matrix" values="0 0 0 0 0 0 0 0 0 0 0 0 0 0 0 0 0 0 127 0" result="hardAlpha"/>
<feMorphology radius="1" operator="dilate" in="SourceAlpha" result="effect1_dropShadow_884_42086"/>
<feOffset/>
<feGaussianBlur stdDeviation="1"/>
<feComposite in2="hardAlpha" operator="out"/>
<feColorMatrix type="matrix" values="0 0 0 0 0 0 0 0 0 0 0 0 0 0 0 0 0 0 0.1 0"/>
<feBlend mode="normal" in2="BackgroundImageFix" result="effect1_dropShadow_884_42086"/>
<feBlend mode="normal" in="SourceGraphic" in2="effect1_dropShadow_884_42086" result="shape"/>
<feColorMatrix in="SourceAlpha" type="matrix" values="0 0 0 0 0 0 0 0 0 0 0 0 0 0 0 0 0 0 127 0" result="hardAlpha"/>
<feMorphology radius="2" operator="erode" in="SourceAlpha" result="effect2_innerShadow_884_42086"/>
<feOffset/>
<feGaussianBlur stdDeviation="0.25"/>
<feComposite in2="hardAlpha" operator="arithmetic" k2="-1" k3="1"/>
<feColorMatrix type="matrix" values="0 0 0 0 0.2925 0 0 0 0 0 0 0 0 0 0 0 0 0 0.1 0"/>
<feBlend mode="normal" in2="shape" result="effect2_innerShadow_884_42086"/>
</filter>
<filter id="filter2_f_884_42086" x="8" y="8" width="64" height="64" filterUnits="userSpaceOnUse" color-interpolation-filters="sRGB">
<feFlood flood-opacity="0" result="BackgroundImageFix"/>
<feBlend mode="normal" in="SourceGraphic" in2="BackgroundImageFix" result="shape"/>
<feGaussianBlur stdDeviation="2" result="effect1_foregroundBlur_884_42086"/>
</filter>
<filter id="filter3_di_884_42086" x="21.3571" y="22" width="37.2857" height="37.9286" filterUnits="userSpaceOnUse" color-interpolation-filters="sRGB">
<feFlood flood-opacity="0" result="BackgroundImageFix"/>
<feColorMatrix in="SourceAlpha" type="matrix" values="0 0 0 0 0 0 0 0 0 0 0 0 0 0 0 0 0 0 127 0" result="hardAlpha"/>
<feOffset dy="1.28571"/>
<feGaussianBlur stdDeviation="0.321429"/>
<feComposite in2="hardAlpha" operator="out"/>
<feColorMatrix type="matrix" values="0 0 0 0 0 0 0 0 0 0 0 0 0 0 0 0 0 0 0.2 0"/>
<feBlend mode="normal" in2="BackgroundImageFix" result="effect1_dropShadow_884_42086"/>
<feBlend mode="normal" in="SourceGraphic" in2="effect1_dropShadow_884_42086" result="shape"/>
<feColorMatrix in="SourceAlpha" type="matrix" values="0 0 0 0 0 0 0 0 0 0 0 0 0 0 0 0 0 0 127 0" result="hardAlpha"/>
<feOffset dy="-0.964286"/>
<feComposite in2="hardAlpha" operator="arithmetic" k2="-1" k3="1"/>
<feColorMatrix type="matrix" values="0 0 0 0 0.207843 0 0 0 0 0.121569 0 0 0 0 0.282353 0 0 0 0.5 0"/>
<feBlend mode="normal" in2="shape" result="effect2_innerShadow_884_42086"/>
</filter>
<linearGradient id="paint0_linear_884_42086" x1="74.7221" y1="9.23673" x2="25.6246" y2="10.1601" gradientUnits="userSpaceOnUse">
<stop stop-color="#FF3D00"/>
<stop offset="1" stop-color="#993859"/>
</linearGradient>
<linearGradient id="paint1_linear_884_42086" x1="9.43739" y1="15.3544" x2="-7.65695" y2="11.4231" gradientUnits="userSpaceOnUse">
<stop stop-color="#F5277D"/>
<stop offset="1" stop-color="#993859"/>
</linearGradient>
<linearGradient id="paint2_linear_884_42086" x1="49.046" y1="0.177994" x2="17.483" y2="0.763132" gradientUnits="userSpaceOnUse">
<stop stop-color="#891244"/>
<stop offset="1" stop-color="#993859"/>
</linearGradient>
<linearGradient id="paint3_linear_884_42086" x1="51.1777" y1="66.8959" x2="94.4379" y2="66.318" gradientUnits="userSpaceOnUse">
<stop stop-color="#891244"/>
<stop offset="1" stop-color="#993859"/>
</linearGradient>
<linearGradient id="paint4_linear_884_42086" x1="92.2023" y1="61.981" x2="39.591" y2="61.1925" gradientUnits="userSpaceOnUse">
<stop stop-color="#F5277D"/>
<stop offset="1" stop-color="#993859"/>
</linearGradient>
<linearGradient id="paint5_linear_884_42086" x1="22.9121" y1="2.61019" x2="-30.8604" y2="3.64579" gradientUnits="userSpaceOnUse">
<stop stop-color="#891244"/>
<stop offset="1" stop-color="#993859"/>
</linearGradient>
<linearGradient id="paint6_linear_884_42086" x1="42.6035" y1="-7.2959" x2="-33.137" y2="-2.76868" gradientUnits="userSpaceOnUse">
<stop stop-color="#891244"/>
<stop offset="1" stop-color="#993859"/>
</linearGradient>
<linearGradient id="paint7_linear_884_42086" x1="40" y1="0" x2="40" y2="80" gradientUnits="userSpaceOnUse">
<stop stop-color="#8677E2"/>
<stop offset="1" stop-color="#F3AEEC" stop-opacity="0.7"/>
</linearGradient>
<linearGradient id="paint8_linear_884_42086" x1="40" y1="22" x2="40" y2="58" gradientUnits="userSpaceOnUse">
<stop stop-color="#8677E2"/>
<stop offset="1" stop-color="#F3AEEC"/>
</linearGradient>
</defs>
</svg>
